<?xml version="1.0" standalone="no"?>
<!DOCTYPE svg PUBLIC "-//W3C//DTD SVG 1.1//EN" "http://www.w3.org/Graphics/SVG/1.1/DTD/svg11.dtd" >
<svg xmlns="http://www.w3.org/2000/svg" xmlns:xlink="http://www.w3.org/1999/xlink" version="1.1">
<metadata></metadata>
<defs>
<font id="bpreplayregular" horiz-adv-x="625" >
<font-face units-per-em="1000" ascent="800" descent="-200" />
<missing-glyph horiz-adv-x="312" />
<glyph unicode=" "  horiz-adv-x="312" />
<glyph unicode="&#x09;" horiz-adv-x="312" />
<glyph unicode="&#xa0;" horiz-adv-x="312" />
<glyph unicode="!" horiz-adv-x="228" d="M85 725v-544q0 -37 -37 -37q-36 0 -36 37v544q0 43 37 43q36 0 36 -43zM0 50q0 21 14.5 35.5t35.5 14.5t35.5 -14.5t14.5 -35.5t-14.5 -35.5t-35.5 -14.5t-35.5 14.5t-14.5 35.5z" />
<glyph unicode="&#x22;" horiz-adv-x="339" d="M0 579v147q0 43 37 43q36 0 36 -43v-147q0 -39 -37 -39q-36 0 -36 39zM139 579v147q0 43 38 43t38 -43v-147q0 -39 -39 -39q-37 0 -37 39z" />
<glyph unicode="#" horiz-adv-x="661" d="M74 518h82l28 212q4 37 32 37q14 0 24.5 -10t10.5 -23v-4l-30 -212h140l30 212q5 38 32 38q14 0 23.5 -9.5t9.5 -23.5v-5l-28 -212h70q16 0 27.5 -8t11.5 -24q0 -33 -44 -33h-73l-25 -162h72q36 0 36 -34q0 -16 -12.5 -25t-27.5 -9h-76l-27 -174q-7 -49 -43 -49 q-24 0 -24 27q0 1 0.5 4.5t0.5 5.5l27 186h-141l-25 -174q-7 -49 -43 -49q-25 0 -25 27q0 1 0.5 5t0.5 5l27 186h-69q-46 0 -46 34q0 17 13.5 25.5t29.5 8.5h80l25 162h-74q-38 0 -38 34q0 31 38 31zM353 453h-140l-25 -162h141z" />
<glyph unicode="$" horiz-adv-x="563" d="M189 770v38q0 32 21 32t21 -30v-40q46 -1 104 -26t58 -63q0 -35 -34 -35q-11 0 -55 24.5t-73 26.5v-252q91 -30 149.5 -87.5t58.5 -140.5q0 -87 -62 -152t-146 -65q0 -24 1 -49q0 -27 -21 -27q-23 0 -24 30l2 46q-53 4 -111 25t-58 53q0 18 10 29.5t26 11.5t61.5 -22 t71.5 -24v299q-81 21 -135 71.5t-54 124.5q0 78 56 134.5t133 67.5zM231 356v-287q53 10 89 50t36 93q0 102 -125 144zM189 461v236q-48 -9 -77.5 -41.5t-29.5 -74.5q0 -44 31.5 -75.5t75.5 -44.5z" />
<glyph unicode="%" horiz-adv-x="826" d="M539 369q74 0 118.5 -55.5t44.5 -132.5q0 -78 -43.5 -129.5t-119.5 -51.5q-77 0 -123 54.5t-46 133.5q0 78 46 129.5t123 51.5zM539 56q48 0 74 36.5t26 87.5t-27 91.5t-73 40.5q-47 0 -74 -38t-27 -89q0 -53 26 -91t75 -38zM167 398q-75 0 -121 56t-46 134t45.5 128.5 t121.5 50.5q75 0 120.5 -54t45.5 -131q0 -78 -45 -131t-121 -53zM167 455q48 0 75 37t27 89q0 54 -28 91.5t-74 37.5q-47 0 -73 -37.5t-26 -88.5t26 -90t73 -39zM183 35l272 698q12 30 39 30q13 0 21.5 -9.5t8.5 -22.5t-6 -26l-279 -705q-5 -15 -32 -15q-11 0 -19 9.5 t-8 24.5q0 9 3 16z" />
<glyph unicode="&#x26;" horiz-adv-x="754" d="M246 497q81 62 81 126q0 38 -21.5 57.5t-51.5 19.5t-52.5 -19.5t-22.5 -54.5q0 -68 67 -129zM564 10l-92 98q-86 -129 -222 -129q-115 0 -182.5 64.5t-67.5 164.5q0 140 176 253q-73 76 -73 151q0 72 46 113.5t107 41.5q59 0 100.5 -39.5t41.5 -113.5q0 -83 -106 -169 l188 -214l60 100q22 39 50 39q15 0 24.5 -9t9.5 -23q0 -23 -15 -47l-81 -122l93 -102q9 -11 9 -24q0 -17 -11.5 -30t-26.5 -13q-17 0 -28 10zM432 165l-215 239q-144 -95 -144 -197q0 -66 54.5 -111.5t123.5 -45.5q111 0 181 115z" />
<glyph unicode="'" horiz-adv-x="273" d="M144 707l-65 -147q-12 -27 -39 -27q-15 0 -27.5 10t-12.5 24q0 8 2 14l61 151q15 37 45 37q16 0 28.5 -12t12.5 -29q0 -9 -5 -21z" />
<glyph unicode="(" horiz-adv-x="305" d="M142 745q14 11 28 11t23.5 -9.5t9.5 -22.5q0 -14 -12 -28q-121 -143 -121 -349q0 -103 30 -200.5t94 -163.5q9 -14 9 -27q0 -14 -9 -23t-23 -9q-17 0 -31 14q-71 71 -105.5 183.5t-34.5 230.5q0 238 142 393z" />
<glyph unicode=")" horiz-adv-x="305" d="M60 745q142 -155 142 -393q0 -118 -34.5 -230.5t-105.5 -183.5q-14 -14 -31 -14q-14 0 -23 9t-9 23t9 27q64 66 94 163.5t30 200.5q0 206 -121 349q-12 14 -12 28q0 13 9.5 22.5t23.5 9.5t28 -11z" />
<glyph unicode="*" d="M148 619q-13 12 -13 26q0 11 9 20t21 9q3 0 11 -2l100 -65l-6 117q6 28 30 28q23 0 30 -25l-7 -120l95 61q7 5 18 5t20 -8.5t9 -20.5q0 -15 -15 -27l-104 -52l102 -50q17 -9 17 -27q0 -12 -8.5 -20.5t-21.5 -8.5q-7 0 -15 3l-97 58l7 -107q0 -16 -9 -24.5t-21 -8.5 q-11 0 -20 8t-10 22l5 110l-97 -60q-8 -2 -13 -2q-12 0 -21 8.5t-9 20.5q0 13 11 24l103 54z" />
<glyph unicode="+" d="M70 315h182v183q0 20 11 31.5t30 11.5q17 0 29 -12.5t12 -30.5v-183h182q23 0 36 -11t13 -29q0 -44 -49 -44h-182v-189q0 -17 -11.5 -29.5t-28.5 -12.5q-19 0 -30.5 11.5t-11.5 30.5v189h-182q-45 0 -45 43q0 41 45 41z" />
<glyph unicode="," horiz-adv-x="272" d="M146 64l-76 -176q-10 -25 -33 -25q-14 0 -25.5 11t-11.5 26q0 6 3 13l67 163q14 32 41 32q15 0 26 -10t11 -24q0 -4 -2 -10z" />
<glyph unicode="-" horiz-adv-x="402" d="M47 315h206q43 0 43 -39q0 -37 -43 -37h-206q-44 0 -44 37q0 16 12 27.5t32 11.5z" />
<glyph unicode="." horiz-adv-x="229" d="M0 50q0 21 14.5 35.5t35.5 14.5t35.5 -14.5t14.5 -35.5t-14.5 -35.5t-35.5 -14.5t-35.5 14.5t-14.5 35.5z" />
<glyph unicode="/" d="M133 35l272 698q12 30 39 30q13 0 21.5 -9.5t8.5 -22.5t-6 -26l-279 -705q-5 -15 -32 -15q-11 0 -19 9.5t-8 24.5q0 9 3 16z" />
<glyph unicode="0" horiz-adv-x="593" d="M247 767h4q65 0 114.5 -37t76 -97.5t39.5 -125t13 -130.5q0 -64 -13.5 -128.5t-41 -125t-77 -98t-113.5 -37.5q-67 0 -117.5 36t-77.5 95.5t-40 124t-13 131.5q0 65 13.5 130t40.5 126t77 98.5t115 37.5zM249 65q43 0 76 32t51 81t26.5 98.5t8.5 94.5q0 52 -8.5 104.5 t-26.5 101.5t-50.5 80t-75.5 31q-46 0 -80.5 -32.5t-52 -83.5t-25.5 -101t-8 -98q0 -49 9.5 -100t28 -99t51.5 -78.5t76 -30.5z" />
<glyph unicode="1" horiz-adv-x="370" d="M144 43v612l-98 -28q-10 -2 -13 -2q-15 0 -25 9t-10 24q0 32 37 42q149 42 153 42q24 0 32 -20q5 -10 5 -51v-628q0 -19 -11 -31t-29 -12q-19 0 -30 12t-11 31z" />
<glyph unicode="2" horiz-adv-x="526" d="M-2 558q0 92 65 149t150 57q82 0 145 -53t63 -135q0 -96 -71 -190l-236 -310h281q37 0 37 -37q0 -39 -38 -39h-331q-55 0 -55 36q0 18 15 37l272 370q44 60 44 126q0 53 -39 85.5t-91 32.5q-53 0 -91 -35.5t-38 -98.5q0 -17 -10.5 -32.5t-29.5 -15.5t-30.5 16.5 t-11.5 36.5z" />
<glyph unicode="3" horiz-adv-x="523" d="M189 767q89 0 143.5 -57t54.5 -140q0 -95 -83 -166q56 -35 84.5 -87t28.5 -109q0 -89 -62 -154.5t-164 -65.5q-57 0 -104 25.5t-74 64.5q-25 36 -25 71q0 19 10 29.5t24 10.5q26 0 37 -26q41 -95 131 -95q60 0 102.5 37.5t42.5 104.5q0 53 -30.5 95t-86.5 51q-12 2 -58 2 q-46 1 -46 37t45 36q47 0 57 2q42 8 65.5 48t23.5 87q0 56 -32 90t-89 34q-43 0 -74 -29t-31 -71q0 -50 -38 -50q-43 0 -43 53q0 66 55.5 119t135.5 53z" />
<glyph unicode="4" horiz-adv-x="603" d="M336 47v142h-285q-25 0 -39 13.5t-14 33.5q0 21 13 38l261 421q29 47 77 47q28 0 46 -19.5t18 -52.5v-405h48q37 0 37 -40q0 -35 -33 -35h-52v-143q0 -47 -38 -47q-39 0 -39 47zM336 658l-244 -393h244v393z" />
<glyph unicode="5" horiz-adv-x="545" d="M170 740h214q17 0 27 -12.5t10 -30.5q0 -38 -37 -38h-206l-33 -193q33 8 76 8q107 0 166.5 -69t59.5 -165q0 -101 -65 -176.5t-182 -75.5q-83 0 -145 41.5t-62 84.5q0 17 9.5 26.5t22.5 9.5q19 0 31 -17q24 -31 66 -50.5t83 -19.5q70 0 116 51t46 117q0 68 -43.5 118.5 t-121.5 50.5q-28 0 -56.5 -8.5t-42.5 -8.5q-41 0 -41 37q0 9 51 280q7 40 57 40z" />
<glyph unicode="6" horiz-adv-x="542" d="M319 679q-62 -58 -118.5 -130.5t-81.5 -123.5q45 53 137 53q83 0 142 -67t59 -169q0 -104 -64 -179t-166 -75q-106 0 -166 78.5t-60 188.5q0 131 71 252t182 221q16 15 34 15t30 -10.5t12 -29.5q0 -13 -11 -24zM231 62q69 5 109.5 57t40.5 120q0 67 -40.5 116t-115.5 49 q-71 0 -108.5 -48.5t-37.5 -115.5q0 -71 41.5 -124.5t110.5 -53.5z" />
<glyph unicode="7" horiz-adv-x="542" d="M44 741h354q19 0 32.5 -13t13.5 -33q0 -12 -6 -27l-265 -627q-18 -41 -48 -41q-35 0 -35 39q0 14 5 24l254 597h-305q-46 0 -46 41q0 40 46 40z" />
<glyph unicode="8" horiz-adv-x="539" d="M123 408q-97 60 -97 170q0 78 57.5 131t138.5 53q82 0 136.5 -51.5t54.5 -132.5q0 -97 -97 -164q59 -28 93.5 -82t34.5 -118q0 -93 -64 -159.5t-157 -66.5q-100 0 -162.5 64.5t-62.5 164.5q0 61 35.5 113.5t89.5 77.5zM223 370q-61 0 -101 -44.5t-40 -105.5 q0 -65 39 -109t102 -44q61 0 99 44t38 107q0 64 -39.5 108t-97.5 44zM223 445q49 0 77.5 38t28.5 90q0 53 -32 84t-77 31t-79.5 -31t-34.5 -84t32.5 -90.5t84.5 -37.5z" />
<glyph unicode="9" horiz-adv-x="549" d="M354 307q-49 -44 -128 -44q-105 0 -167 76t-62 178t62 175.5t174 73.5q106 0 169.5 -77.5t63.5 -196.5q0 -75 -21 -151t-83.5 -172t-161.5 -176q-13 -11 -31 -11q-15 0 -25 9t-10 23q0 22 19 39q68 59 126 133t75 121zM230 689q-74 0 -114 -54.5t-40 -122.5 q0 -80 45.5 -127t109.5 -47q69 0 114 44t45 128q0 71 -41 125t-119 54z" />
<glyph unicode=":" horiz-adv-x="227" d="M0 50q0 21 14.5 35.5t35.5 14.5t35.5 -14.5t14.5 -35.5t-14.5 -35.5t-35.5 -14.5t-35.5 14.5t-14.5 35.5zM0 400q0 21 14.5 35.5t35.5 14.5t35.5 -14.5t14.5 -35.5t-14.5 -35.5t-35.5 -14.5t-35.5 14.5t-14.5 35.5z" />
<glyph unicode=";" horiz-adv-x="272" d="M50 400q0 21 14.5 35.5t35.5 14.5t35.5 -14.5t14.5 -35.5t-14.5 -35.5t-35.5 -14.5t-35.5 14.5t-14.5 35.5zM146 64q2 6 2 10q0 14 -11 24t-26 10q-27 0 -41 -32l-67 -163q-3 -7 -3 -13q0 -15 11.5 -26t25.5 -11q23 0 33 25z" />
<glyph unicode="&#x3c;" horiz-adv-x="650" d="M541 471l-412 -198l404 -196q38 -18 38 -43q0 -15 -9 -24t-25 -9q-15 0 -39 11l-444 221q-35 17 -35 46q0 28 35 45l455 212q20 8 34 8q13 0 22 -9t9 -23q0 -25 -33 -41z" />
<glyph unicode="=" d="M62 428h470q37 0 37 -38q0 -35 -37 -35h-470q-36 0 -36 38q0 35 36 35zM532 148h-470q-36 0 -36 36q0 37 36 37h470q37 0 37 -36q0 -37 -37 -37z" />
<glyph unicode="&#x3e;" horiz-adv-x="650" d="M464 273l-412 198q-33 16 -33 41q0 14 9 23t22 9q14 0 34 -8l455 -212q35 -17 35 -45q0 -29 -35 -46l-444 -221q-24 -11 -39 -11q-16 0 -25 9t-9 24q0 25 38 43z" />
<glyph unicode="?" horiz-adv-x="497" d="M100 50q0 21 14.5 35.5t35.5 14.5t35.5 -14.5t14.5 -35.5t-14.5 -35.5t-35.5 -14.5t-35.5 14.5t-14.5 35.5zM302 563q0 51 -30.5 78t-72.5 27q-38 0 -66.5 -26t-32.5 -65q-2 -20 -12.5 -31.5t-24.5 -11.5q-15 0 -25.5 12t-10.5 34q0 75 54 119t123 44q73 0 124 -47.5 t51 -131.5q0 -47 -19.5 -97.5t-55.5 -99.5t-66 -83.5t-71 -75.5q-15 -13 -29 -13q-16 0 -26 10t-10 27q0 15 22 37q54 55 86.5 92.5t62 94.5t29.5 107z" />
<glyph unicode="@" horiz-adv-x="878" d="M470 536q5 43 33 43q34 0 34 -48v-207q0 -80 42 -80q38 0 61 49t23 144q0 122 -76 195t-194 73q-143 0 -224.5 -95.5t-81.5 -246.5q0 -139 84.5 -224.5t209.5 -85.5q166 0 243 86q19 20 37 20q12 0 20 -7t8 -19q0 -21 -13 -35q-52 -58 -134 -84.5t-166 -26.5 q-152 0 -255.5 102.5t-103.5 271.5q0 180 101 295t276 115q150 0 243 -87.5t93 -241.5q0 -114 -41.5 -189.5t-106.5 -75.5q-54 0 -100 57q-51 -56 -116 -56q-81 0 -124.5 57t-43.5 137q0 84 46.5 146t128.5 62q53 0 97 -44zM464 298v174q-37 40 -79 40q-53 0 -84.5 -42 t-31.5 -98q0 -51 27 -88t78 -37q59 0 90 51z" />
<glyph unicode="A" horiz-adv-x="678" d="M289 638l-150 -410h296zM514 24l-52 128h-344l-41 -114q-14 -38 -45 -38q-32 0 -32 35q0 8 4 20l226 640q16 45 58 45t58 -45l234 -640q4 -9 4 -21q0 -34 -34 -34q-27 0 -36 24z" />
<glyph unicode="B" horiz-adv-x="606" d="M0 49v643q0 48 41 48h193q34 0 69 -10t68.5 -29.5t54.5 -55.5t21 -81q0 -54 -32 -98.5t-81 -59.5q69 -11 120 -68t51 -130q0 -90 -62.5 -149t-149.5 -59h-235q-33 0 -44 8q-14 9 -14 41zM74 362v-289h189q68 0 113.5 35.5t45.5 98.5q0 72 -57.5 113.5t-136.5 41.5h-154z M74 430h130q65 0 115 30t50 89q0 53 -42.5 85.5t-98.5 32.5h-154v-237z" />
<glyph unicode="C" horiz-adv-x="708" d="M508 135q11 11 25 11q36 0 36 -37q0 -23 -15 -37q-95 -83 -214 -83q-82 0 -148.5 32.5t-108 87.5t-63 122.5t-21.5 141.5q0 75 22.5 144.5t64.5 125.5t109.5 90t150.5 34q123 0 211 -82q19 -16 19 -36q0 -18 -10.5 -29t-25.5 -11q-19 0 -31 12q-65 65 -166 65 q-84 0 -145.5 -45.5t-89.5 -113.5t-28 -147q0 -126 70.5 -220t193.5 -94q95 0 164 69z" />
<glyph unicode="D" horiz-adv-x="659" d="M0 41v651q0 48 58 48h198q94 0 163.5 -56t102 -139t32.5 -178q0 -147 -88.5 -257t-229.5 -110h-194q-25 0 -33.5 8t-8.5 33zM245 667h-171v-594h157q113 0 178.5 87.5t65.5 206.5q0 79 -25 145.5t-78.5 110.5t-126.5 44z" />
<glyph unicode="E" horiz-adv-x="492" d="M0 45v650q0 45 41 45h304q37 0 37 -37q0 -36 -37 -36h-272v-246h224q37 0 37 -38q0 -35 -37 -35h-224v-275h280q43 0 43 -37q0 -36 -43 -36h-312q-26 0 -33.5 8.5t-7.5 36.5z" />
<glyph unicode="F" horiz-adv-x="453" d="M0 30v662q0 48 41 48h295q37 0 37 -37q0 -36 -37 -36h-262v-264h198q37 0 37 -38q0 -36 -37 -36h-198v-299q0 -30 -38 -30q-36 0 -36 30z" />
<glyph unicode="G" horiz-adv-x="718" d="M546 350h-205q-44 0 -44 36q0 37 47 37h217q39 0 51.5 -23.5t12.5 -65.5q0 -146 -82.5 -245.5t-216.5 -99.5q-79 0 -143 34.5t-103 91.5t-59.5 125.5t-20.5 141.5q0 80 21.5 150t63 124t107 85t148.5 31q57 0 118.5 -23.5t104.5 -68.5q17 -17 17 -33t-10.5 -29t-28.5 -13 q-17 0 -35 16q-78 71 -170 71q-123 0 -188.5 -85t-65.5 -224q0 -79 26.5 -149.5t84.5 -119t137 -48.5q102 0 161 77t59 192q0 14 -4 15z" />
<glyph unicode="H" horiz-adv-x="677" d="M0 36v669q0 37 36 37q37 0 37 -37v-292h413v292q0 37 36 37q38 0 38 -37v-669q0 -36 -38 -36q-36 0 -36 36v303h-413v-303q0 -36 -36 -36q-37 0 -37 36z" />
<glyph unicode="I" horiz-adv-x="191" d="M0 37v668q0 37 36 37q37 0 37 -37v-668q0 -37 -37 -37q-36 0 -36 37z" />
<glyph unicode="J" horiz-adv-x="431" d="M315 705v-556q0 -74 -46.5 -118t-120.5 -44q-80 0 -136 50q-12 11 -12 28q0 38 34 38q8 0 42 -23t73 -23q43 0 67 24.5t24 67.5v556q0 37 37 37q38 0 38 -37z" />
<glyph unicode="K" horiz-adv-x="593" d="M0 32v679q0 31 36 31q38 0 38 -31v-365l349 385q8 9 23 9q16 0 28.5 -12.5t12.5 -27.5q0 -14 -10 -23l-215 -235l232 -377q12 -11 12 -29q0 -16 -13.5 -26.5t-23.5 -10.5q-19 0 -34 17l-227 371l-134 -141v-214q0 -32 -36 -32q-38 0 -38 32z" />
<glyph unicode="L" horiz-adv-x="514" d="M0 57v648q0 37 36 37q37 0 37 -37v-632h321q37 0 37 -36q0 -37 -37 -37h-345q-49 0 -49 57z" />
<glyph unicode="M" horiz-adv-x="908" d="M234 677l164 -545l168 545q20 65 72 65t62 -73l93 -624q0 -1 0.5 -4t0.5 -4q0 -16 -10.5 -26t-26.5 -10q-34 0 -40 40l-85 607l-195 -605q-13 -43 -41 -43t-41 43l-188 606l-92 -607q-6 -41 -40 -41q-35 0 -35 34q0 8 1 12l99 622q12 75 64 75q51 0 70 -67z" />
<glyph unicode="N" horiz-adv-x="668" d="M0 38v660q0 44 36 44q28 0 52 -36l390 -574v571q0 38 36 38q37 0 37 -38v-659q0 -44 -36 -44q-29 0 -50 30l-392 572v-564q0 -38 -36 -38q-37 0 -37 38z" />
<glyph unicode="O" horiz-adv-x="747" d="M318 765q103 0 178 -57.5t110 -144t35 -187.5q0 -100 -35 -186t-110 -143t-178 -57q-101 0 -175 57.5t-108.5 144.5t-34.5 187q0 74 20.5 142t58.5 123t100 88t139 33zM318 690q-77 0 -133.5 -45.5t-82 -114t-25.5 -149.5q0 -83 26.5 -154t83 -118t133.5 -47q78 0 135 46 t82.5 114.5t25.5 150.5q0 129 -64.5 223t-180.5 94z" />
<glyph unicode="P" horiz-adv-x="606" d="M0 37v664q0 40 41 40h212q104 0 174.5 -63.5t70.5 -163.5q0 -94 -70 -158.5t-169 -64.5h-186v-254q0 -37 -36 -37q-37 0 -37 37zM239 668h-166v-304h182q71 0 119 41.5t48 109.5q0 71 -50.5 112t-132.5 41z" />
<glyph unicode="Q" horiz-adv-x="758" d="M318 765q103 0 178 -57.5t110 -144t35 -187.5q0 -135 -63 -238q8 -9 68 -75q11 -13 11 -27t-9 -24.5t-25 -10.5q-14 0 -23 9l-69 70q-94 -90 -213 -90q-101 0 -175 57.5t-108.5 144.5t-34.5 187q0 74 20.5 142t58.5 123t100 88t139 33zM319 690q-77 0 -133.5 -45.5 t-82 -114t-25.5 -149.5q0 -83 26.5 -154t83 -118t133.5 -47q97 0 166 69l-56 52q-14 14 -14 29q0 18 12 30.5t28 12.5q15 0 26 -11l48 -48q33 71 33 177q0 129 -64.5 223t-180.5 94z" />
<glyph unicode="R" horiz-adv-x="615" d="M0 45v656q0 40 57 40h230q106 0 167 -62t61 -146q0 -65 -39.5 -118.5t-114.5 -73.5l140 -274q9 -18 9 -35q0 -33 -32 -33q-24 0 -34 20l-161 306h-210v-280q0 -45 -36 -45q-37 0 -37 45zM295 668h-222v-270h222q69 0 106.5 38.5t37.5 93.5t-38.5 96.5t-105.5 41.5z" />
<glyph unicode="S" horiz-adv-x="548" d="M355 644q-56 35 -141 35q-51 0 -89 -36.5t-38 -88.5q0 -13 4 -25t15.5 -24.5t20 -20.5t29.5 -20.5t30.5 -18t36 -19.5t35.5 -19q34 -19 46 -25.5t41 -24.5t41 -31t28.5 -32.5t23 -41.5t6.5 -47q0 -104 -68.5 -160.5t-176.5 -56.5q-95 0 -172 50q-27 18 -27 44q0 34 34 34 q17 0 35 -12q62 -38 133 -38t116 33t45 101q0 21 -11 40t-36.5 37.5t-45 30t-57.5 31.5q-51 27 -76 41.5t-62 42.5t-53.5 59t-16.5 68q0 95 64 151t161 56q85 0 170 -46q28 -16 28 -46q0 -16 -10 -27.5t-25 -11.5q-10 0 -38 18z" />
<glyph unicode="T" horiz-adv-x="531" d="M187 42v626h-147q-40 0 -40 36q0 37 40 37h369q38 0 38 -37q0 -36 -38 -36h-148v-626q0 -42 -36 -42q-38 0 -38 42z" />
<glyph unicode="U" horiz-adv-x="682" d="M0 285v413q0 43 41 43q40 0 40 -43v-405q0 -223 208 -223q93 0 145 50t52 173v405q0 43 41 43t41 -43v-413q0 -80 -23 -139t-64 -92.5t-91 -49t-110 -15.5q-126 0 -203 70.5t-77 225.5z" />
<glyph unicode="V" horiz-adv-x="660" d="M77 713l206 -589l204 589q11 29 35 29q16 0 30 -12.5t14 -28.5q0 -6 -3 -12l-223 -627q-23 -62 -57 -62q-31 0 -51 53l-229 636q-3 9 -3 18q0 36 38 36q28 0 39 -30z" />
<glyph unicode="W" horiz-adv-x="905" d="M77 705l103 -605l170 604q11 38 53 38q41 0 52 -38l165 -603l100 602q6 41 41 41q16 0 27.5 -11t11.5 -28q0 -6 -1 -9l-116 -645q-4 -23 -22 -37t-41 -14q-48 0 -61 46l-158 579l-157 -563q-9 -32 -27 -48t-39 -16q-22 0 -40 16t-23 43l-114 639q-1 3 -1 9q0 17 11 27 t27 10q33 0 39 -37z" />
<glyph unicode="X" horiz-adv-x="662" d="M12 62l222 345l-196 276q-9 13 -9 25q0 15 10 24.5t25 9.5q20 0 33 -18l183 -251l161 250q12 18 31 18q14 0 25 -10.5t11 -25.5q0 -12 -8 -23l-180 -266l234 -352q14 -22 14 -37q0 -28 -29 -28q-22 0 -38 22l-225 327l-209 -326q-15 -23 -38 -23q-29 0 -29 29q0 16 12 34 z" />
<glyph unicode="Y" horiz-adv-x="568" d="M197 43v305l-190 333q-7 13 -7 26q0 35 33 35q19 0 31 -21l175 -292l171 290q14 23 36 23q33 0 33 -32q0 -10 -6 -21l-201 -341v-305q0 -43 -37 -43q-38 0 -38 43z" />
<glyph unicode="Z" horiz-adv-x="600" d="M11 81l389 587h-348q-38 0 -38 36q0 37 38 37h402q50 0 50 -32q0 -18 -20 -49l-389 -587h383q39 0 39 -35q0 -38 -39 -38h-443q-35 0 -35 42q0 22 11 39z" />
<glyph unicode="[" horiz-adv-x="270" d="M0 -13v722q0 49 41 49h73q32 0 32 -36q0 -30 -31 -30h-42v-690h42q31 0 31 -30q0 -34 -32 -34h-73q-41 0 -41 49z" />
<glyph unicode="\" horiz-adv-x="474" d="M76 717l272 -682q2 -6 2 -11q0 -13 -9.5 -22t-23.5 -9q-29 0 -43 34l-271 682q-3 7 -3 15q0 15 11 23.5t28 8.5q14 0 21 -9t16 -30z" />
<glyph unicode="]" horiz-adv-x="270" d="M73 2v683q-3 0 -17 -0.5t-25 -0.5q-31 0 -31 32q0 34 31 34h75q40 0 40 -49v-714q0 -49 -40 -49h-75q-31 0 -31 37q0 27 26 27h47z" />
<glyph unicode="^" d="M343 725l215 -394q8 -16 8 -30q0 -34 -37 -34q-25 0 -47 40l-180 337l-190 -337q-13 -23 -21 -31.5t-23 -8.5q-16 0 -27.5 8.5t-11.5 24.5q0 14 9 31l223 394q13 25 41 25t41 -25z" />
<glyph unicode="_" horiz-adv-x="533" d="M499 -128h-499q-37 0 -37 33t37 33h499q39 0 39 -34q0 -32 -39 -32z" />
<glyph unicode="`" horiz-adv-x="273" d="M147 707l-68 -154q-15 -35 -36 -35q-19 0 -31.5 10t-12.5 24q0 9 4 17l67 156q13 28 38 28q18 0 29.5 -9.5t11.5 -26.5q0 -4 -2 -10z" />
<glyph unicode="a" horiz-adv-x="557" d="M74 539q73 30 166 30q96 0 149.5 -51t53.5 -130v-359q0 -15 -10 -26t-27 -11t-26.5 10.5t-10.5 25.5q-1 19 -1 34q-65 -70 -171 -70q-79 0 -135.5 43.5t-56.5 123.5q0 83 63.5 130t148.5 47q101 0 151 -50v95q0 52 -40 83.5t-110 31.5q-37 0 -82 -12t-56 -12 q-34 0 -34 31q0 24 28 36zM80 165q0 -51 37.5 -77t92.5 -26q61 0 109 30t48 79q0 43 -45.5 69.5t-104.5 26.5q-57 0 -97 -26.5t-40 -75.5z" />
<glyph unicode="b" horiz-adv-x="576" d="M0 30v711q0 39 37 39t37 -39v-283q16 47 65 81t100 34q109 0 171 -89t62 -207q0 -75 -25 -139.5t-79.5 -107t-128.5 -42.5q-54 0 -99 26t-66 73v-58q0 -18 -11 -29t-27 -11q-36 0 -36 41zM244 58q40 0 70 19.5t47 51.5t25.5 69t8.5 77q0 54 -14 103t-49.5 86t-87.5 37 q-81 0 -123.5 -67t-42.5 -155q0 -89 42.5 -155t123.5 -66z" />
<glyph unicode="c" horiz-adv-x="520" d="M265 489q-81 0 -135 -60t-54 -156q0 -88 56.5 -150.5t135.5 -62.5q62 0 112 34q5 4 13 4q11 0 20.5 -9.5t9.5 -22.5q0 -18 -24 -37q-61 -40 -133 -40q-113 0 -189.5 83t-76.5 206q0 124 77 203t187 79q71 0 119 -22q34 -15 34 -36q0 -17 -9 -27.5t-24 -10.5q-4 0 -10 2 q-54 23 -109 23z" />
<glyph unicode="d" horiz-adv-x="582" d="M395 480v262q0 39 38 39q36 0 36 -39v-723q0 -33 -36 -33q-38 0 -38 34v67q-64 -100 -163 -100q-111 0 -171.5 84t-60.5 202q0 75 25 141.5t79 112.5t128 46q49 0 95.5 -24.5t67.5 -68.5zM231 54q66 0 116 61.5t50 161.5q0 101 -48.5 162t-113.5 61q-74 0 -116 -68 t-42 -160q0 -89 40.5 -153.5t113.5 -64.5z" />
<glyph unicode="e" horiz-adv-x="604" d="M242 574q109 0 170 -69t61 -181q0 -44 -11.5 -62.5t-44.5 -18.5h-338q0 -67 56 -124t123 -57q43 0 73 11t63 40q20 18 43 18q33 0 33 -34q0 -13 -7 -20q-71 -89 -205 -89q-119 0 -188.5 84t-69.5 208q0 118 65.5 206t176.5 88zM80 315h319q0 79 -42 132t-112 53 q-71 0 -118 -54.5t-47 -130.5z" />
<glyph unicode="f" horiz-adv-x="344" d="M88 36v443h-47q-41 0 -41 36q0 39 41 39h47q0 92 34 140t112 48q44 0 44 -35q0 -33 -44 -33q-41 0 -57 -29t-16 -91q32 0 64 1q41 0 41 -38q0 -39 -43 -39h-62v-442q0 -36 -37 -36q-36 0 -36 36z" />
<glyph unicode="g" horiz-adv-x="585" d="M77 283q0 -105 49.5 -165t115.5 -60t113 58.5t47 163.5q0 103 -48.5 161.5t-114.5 58.5q-65 0 -113.5 -57.5t-48.5 -159.5zM399 479v64q0 33 36 33q38 0 38 -35v-503q0 -125 -70.5 -194.5t-169.5 -69.5q-105 0 -176 45q-20 13 -20 37q0 16 10 27.5t26 11.5q12 0 38 -15 q56 -31 119 -31q73 0 121 46t48 134v51q-18 -46 -61.5 -68.5t-93.5 -22.5q-114 0 -179 86.5t-65 206.5q0 119 65 205t179 86q46 0 92.5 -28t62.5 -66z" />
<glyph unicode="h" horiz-adv-x="526" d="M0 36v706q0 39 36 39q37 0 37 -39v-256q49 86 147 86q77 0 137.5 -54t60.5 -136v-346q0 -36 -37 -36q-36 0 -36 36v314q0 71 -39.5 110.5t-94.5 39.5q-56 0 -97 -40t-41 -110v-314q0 -36 -37 -36q-36 0 -36 36z" />
<glyph unicode="i" horiz-adv-x="230" d="M15 37v494q0 37 37 37q39 0 39 -37v-494q0 -37 -38 -37t-38 37zM0 735q0 21 14.5 35.5t35.5 14.5t35.5 -14.5t14.5 -35.5t-14.5 -35.5t-35.5 -14.5t-35.5 14.5t-14.5 35.5z" />
<glyph unicode="j" horiz-adv-x="210" d="M0 735q0 21 14.5 35.5t35.5 14.5t35.5 -14.5t14.5 -35.5t-14.5 -35.5t-35.5 -14.5t-35.5 14.5t-14.5 35.5zM88 -52v583q0 36 -37 36q-38 0 -38 -36v-583q0 -66 -13.5 -93t-59.5 -27q-44 0 -44 -33q0 -35 44 -35q84 0 116 46.5t32 141.5z" />
<glyph unicode="k" horiz-adv-x="512" d="M-1 36v707q0 37 38 37q37 0 37 -37v-465l285 269q11 9 25 9q16 0 27 -9.5t11 -24.5t-21 -36l-160 -150q21 -30 85.5 -120.5t98.5 -138.5q16 -27 16 -42q0 -18 -10 -27.5t-24 -9.5q-25 0 -38 22l-186 265l-109 -99v-150q0 -36 -38 -36q-37 0 -37 36z" />
<glyph unicode="l" horiz-adv-x="205" d="M0 37v707q0 38 36 38q38 0 38 -38v-707q0 -37 -37 -37t-37 37z" />
<glyph unicode="m" horiz-adv-x="841" d="M0 38v482q0 44 37 44t37 -41v-39q20 40 60.5 64.5t84.5 24.5q49 0 90.5 -29t60.5 -76q24 47 72 76t104 29q78 0 132.5 -50t54.5 -127v-358q0 -36 -37 -36q-38 0 -38 36v326q0 56 -31.5 94t-84.5 38q-62 0 -101 -46t-39 -111v-301q0 -37 -36 -37q-37 0 -37 37v326 q0 56 -32 93t-85 37q-62 0 -100.5 -45t-38.5 -110v-301q0 -37 -36 -37q-37 0 -37 37z" />
<glyph unicode="n" horiz-adv-x="527" d="M0 36v488q0 39 36 39q37 0 37 -39v-38q48 87 150 87q77 0 136 -53t59 -138v-346q0 -36 -37 -36q-36 0 -36 36v314q0 71 -39.5 110.5t-94.5 39.5q-56 0 -97 -40t-41 -110v-314q0 -36 -37 -36q-36 0 -36 36z" />
<glyph unicode="o" horiz-adv-x="590" d="M242 573q76 0 132.5 -44.5t83 -111t26.5 -143.5q0 -119 -64.5 -202t-177.5 -83t-177.5 86t-64.5 206t64.5 206t177.5 86zM242 501q-81 0 -122.5 -63t-41.5 -150q0 -88 42.5 -159t121.5 -71q80 0 122.5 62t42.5 148q0 54 -17 105.5t-56 89.5t-92 38z" />
<glyph unicode="p" horiz-adv-x="576" d="M0 -189v723q0 39 37 39t37 -39v-76q16 47 65 81t100 34q109 0 171 -89t62 -207q0 -75 -25 -139.5t-79.5 -107t-128.5 -42.5q-54 0 -99 26t-66 73v-277q0 -18 -11 -29t-27 -11q-36 0 -36 41zM246 56q40 0 70 19.5t47 51.5t25.5 69t8.5 77q0 54 -14 103t-49.5 86t-87.5 37 q-81 0 -123.5 -67t-42.5 -155q0 -89 42.5 -155t123.5 -66z" />
<glyph unicode="q" horiz-adv-x="581" d="M395 480v54q0 39 38 39q36 0 36 -39v-731q0 -33 -36 -33q-38 0 -38 34v283q-64 -100 -163 -100q-111 0 -171.5 84t-60.5 202q0 75 25 141.5t79 112.5t128 46q49 0 95.5 -24.5t67.5 -68.5zM230 55q66 0 116 61.5t50 161.5q0 101 -48.5 162t-113.5 61q-74 0 -116 -68 t-42 -160q0 -89 40.5 -153.5t113.5 -64.5z" />
<glyph unicode="r" horiz-adv-x="419" d="M0 36v488q0 39 36 39q37 0 37 -39v-48q27 48 74 72.5t101 24.5q37 0 55 -13.5t18 -32.5q0 -16 -11 -27.5t-28 -11.5q-13 0 -31.5 3.5t-36.5 3.5q-50 0 -95.5 -44.5t-45.5 -100.5v-314q0 -36 -37 -36q-36 0 -36 36z" />
<glyph unicode="s" horiz-adv-x="504" d="M70 108q68 -45 138 -45q48 0 85.5 21.5t37.5 65.5q0 55 -115 96q-43 16 -71 28.5t-62 32.5t-51 45.5t-17 55.5q0 80 57.5 121.5t143.5 41.5q89 0 155 -36q19 -10 19 -35q0 -17 -9.5 -26t-24.5 -9q-12 0 -22 6q-45 26 -120 26q-50 0 -85 -19.5t-35 -60.5q0 -10 4 -18.5 t13.5 -16.5t18.5 -14t26 -14t27.5 -12.5t32 -13t31.5 -12.5q33 -14 50 -21.5t43 -23t39 -30t23.5 -36.5t10.5 -48q0 -85 -61 -126.5t-146 -41.5q-92 0 -185 59q-13 9 -13 30q0 41 33 41q13 0 29 -11z" />
<glyph unicode="t" horiz-adv-x="388" d="M68 553v82q0 36 36 36q37 0 37 -36v-82h88q39 0 39 -34t-37 -34h-90v-306q0 -67 13.5 -93.5t59.5 -26.5q44 0 44 -33q0 -35 -44 -35q-84 0 -115 46.5t-31 141.5v307h-32q-36 0 -36 34q0 33 31 33h37z" />
<glyph unicode="u" horiz-adv-x="529" d="M74 523l1 -281q0 -55 10 -93t29 -56.5t40 -25.5t48 -7q62 0 109.5 59t47.5 158v250q0 39 34 39q36 0 36 -39v-508q0 -33 -36 -33q-38 0 -38 34v67q-63 -104 -162 -104q-82 0 -137 55.5t-55 171.5v313q0 37 36 37q37 0 37 -37z" />
<glyph unicode="v" horiz-adv-x="509" d="M80 512l125 -382l127 383q15 43 45 43q35 0 35 -35q0 -9 -3 -16l-163 -475q-10 -30 -44 -30q-30 0 -40 30l-159 474q-3 9 -3 17q0 16 10.5 25.5t26.5 9.5q29 0 43 -44z" />
<glyph unicode="w" horiz-adv-x="869" d="M79 524l125 -399l135 394q12 35 45 35q16 0 31.5 -9.5t19.5 -25.5l128 -390l122 396q10 31 42 31q33 0 33 -38q0 -10 -5 -25q0 -11 -150 -455q-13 -37 -45 -37q-30 0 -43 40l-134 393l-129 -396q-12 -38 -48 -38t-50 41q-156 463 -156 474q0 40 37 40q30 0 42 -31z" />
<glyph unicode="x" horiz-adv-x="551" d="M17 76l164 223l-142 190q-11 16 -11 29q0 15 11.5 25.5t26.5 10.5q24 0 39 -22l122 -175l124 176q15 22 38 22q16 0 27.5 -10t11.5 -25t-12 -30l-147 -185l166 -225q19 -25 19 -47q0 -33 -32 -33q-28 0 -50 31l-150 208l-150 -209q-19 -28 -43 -28q-29 0 -29 31 q0 20 17 43z" />
<glyph unicode="y" horiz-adv-x="522" d="M100 -169l68 176l-163 486q-5 15 -5 24q0 37 35 37q32 0 43 -35l132 -408l137 413q10 31 42 31q36 0 36 -36q0 -15 -3 -23l-247 -690q-11 -33 -45 -33t-34 36q0 11 4 22z" />
<glyph unicode="z" horiz-adv-x="528" d="M50 554h305q45 0 45 -30q0 -21 -21 -51l-282 -402h282q37 0 37 -35q0 -36 -37 -36h-321q-58 0 -58 35q0 19 18 44l280 402h-248q-37 0 -37 37q0 36 37 36z" />
<glyph unicode="{" horiz-adv-x="391" d="M0 351q0 5 1.5 9t5 7t6 5.5t8.5 5t9 3.5l10.5 3.5t9.5 3.5q54 22 54 156q0 39 -4 84q0 71 35 96.5t100 25.5q13 0 22.5 -10t9.5 -21q0 -26 -43 -26q-56 0 -56 -76q0 -14 2 -41.5t2 -38.5q0 -143 -84 -189q83 -30 83 -181q0 -16 -1 -44t-1 -39q0 -38 13.5 -60t51.5 -23 q33 -1 33 -26q0 -29 -32 -29q-81 0 -109.5 30.5t-28.5 81.5q0 15 2 50t2 54q0 132 -51 156q-3 1 -11.5 2.5t-12 2.5t-10 3.5t-9 5t-5 7.5t-2.5 12z" />
<glyph unicode="|" horiz-adv-x="197" d="M0 19v755q0 43 37 43q36 0 36 -43v-755q0 -37 -37 -37q-36 0 -36 37z" />
<glyph unicode="}" horiz-adv-x="391" d="M267 351q0 -7 -2.5 -12t-5 -7.5t-9 -5t-10 -3.5t-12 -2.5t-11.5 -2.5q-51 -24 -51 -156q0 -19 2 -54t2 -50q0 -51 -28.5 -81.5t-109.5 -30.5q-32 0 -32 29q0 25 33 26q38 1 51.5 23t13.5 60q0 11 -1 39t-1 44q0 151 83 181q-84 46 -84 189q0 11 2 38.5t2 41.5 q0 76 -56 76q-43 0 -43 26q0 11 10 21t22 10q65 0 100 -25.5t35 -96.5q-4 -45 -4 -84q0 -134 54 -156q2 -1 9.5 -3.5l10.5 -3.5t9 -3.5t8.5 -5t6 -5.5t5 -7t1.5 -9z" />
<glyph unicode="~" horiz-adv-x="613" d="M33 186q-33 0 -33 41q0 35 46 76t90 41q45 0 115.5 -38t95.5 -38q23 0 39 19t31.5 37.5t36.5 18.5q35 0 35 -44q0 -33 -50.5 -73t-96.5 -40q-40 0 -105.5 37.5t-98.5 37.5q-30 0 -57 -36q-29 -39 -48 -39z" />
<glyph unicode="&#xa3;" horiz-adv-x="676" d="M151 348h-114q-37 0 -37 35q0 38 37 38h90q-54 77 -54 154q0 87 63 132.5t153 45.5q92 0 165 -50.5t79 -135.5q0 -17 -10.5 -29t-25.5 -12q-26 0 -39 31q-8 57 -57 90t-109 33q-55 0 -93 -29t-38 -82q0 -69 47 -148h134q36 0 36 -37q0 -36 -36 -36h-115q16 -45 16 -87 q0 -97 -100 -185h372q37 0 37 -38q0 -36 -37 -36h-437q-41 0 -41 35q0 21 33 55q46 49 69.5 89.5t23.5 90.5q0 36 -12 76z" />
<glyph unicode="&#xa4;" horiz-adv-x="801" d="M65 88l98 79q-15 37 -15 87q0 55 21 99l-104 84q-30 25 -30 49q0 13 10 20t23 7q16 0 38 -17l104 -87q56 51 134 51q75 0 132 -48l101 84q20 17 38 17q13 0 23 -7t10 -20q0 -25 -30 -49l-97 -78q26 -47 26 -105q0 -51 -18 -95l89 -71q30 -24 30 -49q0 -13 -10 -20t-23 -7 q-20 0 -38 17l-86 71q-58 -61 -144 -61q-90 0 -148 67l-93 -77q-18 -17 -38 -17q-13 0 -23 7t-10 20q0 23 30 49zM213 253q0 -72 39.5 -112t94.5 -40t95 39.5t40 112.5q0 68 -41 107t-96 39t-93.5 -37.5t-38.5 -108.5z" />
<glyph unicode="&#xa5;" horiz-adv-x="616" d="M73 307h130v41l-34 59h-119q-44 0 -44 36q0 16 12 27.5t32 11.5h76l-119 211q-7 13 -7 26q0 15 10 25t23 10q19 0 31 -21l181 -304l181 304q12 21 34 21q32 0 32 -31q0 -13 -9 -30l-125 -211h81q43 0 43 -38q0 -37 -43 -37h-126l-35 -59v-41h130q44 0 44 -38 q0 -37 -44 -37h-130v-197q0 -42 -37 -42q-38 0 -38 42v197h-130q-43 0 -43 36q0 16 11.5 27.5t31.5 11.5z" />
<glyph unicode="&#xa6;" horiz-adv-x="197" d="M0 480v301q0 21 10 33.5t26 12.5t26.5 -10t10.5 -28v-309q0 -37 -37 -37q-36 0 -36 37zM0 36v324q0 21 10 33.5t26 12.5q37 0 37 -37v-333q0 -36 -37 -36q-36 0 -36 36z" />
<glyph unicode="&#xa7;" horiz-adv-x="537" d="M316 340q0 36 -32 61t-77.5 40t-91.5 31.5t-78 48t-32 77.5q0 80 58 123t143 43q83 0 155 -39q19 -10 19 -35q0 -17 -10.5 -27t-25.5 -10q-12 0 -22 6q-45 26 -120 26q-50 0 -82.5 -18.5t-32.5 -59.5q0 -10 4 -18.5t13 -16t17.5 -13.5t25 -13t27 -11.5t32 -12.5t31.5 -12 q166 -65 166 -163q0 -27 -12.5 -41t-29.5 -14q-18 0 -31.5 14t-13.5 34zM92 366q0 -36 32 -61t77.5 -40t91.5 -31.5t78 -48t32 -77.5q0 -80 -58 -123t-143 -43q-83 0 -155 39q-19 10 -19 35q0 17 10.5 27t25.5 10q12 0 22 -6q45 -26 120 -26q50 0 82.5 18.5t32.5 59.5 q0 10 -4 18.5t-13 16t-17.5 13.5t-25 13t-27 11.5t-32 12.5t-31.5 12q-166 65 -166 163q0 27 12.5 41t29.5 14q18 0 31.5 -14t13.5 -34z" />
<glyph unicode="&#xa8;" horiz-adv-x="410" d="M0 650q0 21 14.5 35.5t35.5 14.5t35.5 -14.5t14.5 -35.5t-14.5 -35.5t-35.5 -14.5t-35.5 14.5t-14.5 35.5zM200 650q0 21 14.5 35.5t35.5 14.5t35.5 -14.5t14.5 -35.5t-14.5 -35.5t-35.5 -14.5t-35.5 14.5t-14.5 35.5z" />
<glyph unicode="&#xa9;" horiz-adv-x="882" d="M378 741q166 0 271 -107t105 -272q0 -164 -106 -269.5t-272 -105.5t-271 106t-105 271t105.5 271t272.5 106zM380 55q134 0 217.5 87t83.5 221q0 135 -84.5 224t-218.5 89t-217.5 -88t-83.5 -222t84.5 -222.5t218.5 -88.5zM384 536q-67 0 -108 -47.5t-41 -126.5 q0 -65 41 -116t101 -51q37 0 59 9q33 11 36 11q30 0 30 -29q0 -17 -16 -30q-32 -26 -101 -26q-96 0 -156 69.5t-60 167.5q0 101 64.5 168.5t153.5 67.5q45 0 95 -22q28 -14 28 -32q0 -14 -8.5 -24t-20.5 -10q-4 0 -8 2q-44 19 -89 19z" />
<glyph unicode="&#xab;" horiz-adv-x="456" d="M325 429l-99 -155q8 -11 104 -176q2 -4 2 -7q0 -10 -13.5 -18.5t-27.5 -8.5q-17 0 -24 12l-100 163q-11 20 -11 34t11 34l100 163q8 11 25 11q40 0 40 -31q0 -11 -7 -21zM167 429l-97 -155q33 -55 103 -176q2 -6 2 -7q0 -10 -13.5 -18.5t-27.5 -8.5q-16 0 -24 12l-97 163 q-13 22 -13 34q0 14 13 34l97 163q8 12 23 12t27 -11t12 -25q0 -9 -5 -17z" />
<glyph unicode="&#xac;" horiz-adv-x="672" d="M472 120v119h-429q-43 0 -43 37q0 16 12 27.5t31 11.5h463q42 0 42 -47v-148q0 -43 -36 -43q-16 0 -28 11.5t-12 31.5z" />
<glyph unicode="&#xad;" horiz-adv-x="32767" />
<glyph unicode="&#xae;" horiz-adv-x="881" d="M377 750q165 0 270.5 -107.5t105.5 -271.5q0 -165 -105 -270.5t-271 -105.5q-165 0 -271 107.5t-106 271.5t106 270t271 106zM265 600h147q62 0 103 -39q40 -37 40 -89q0 -89 -111 -119q32 -47 59 -89q47 -74 47 -86q0 -30 -40 -30q-25 0 -40 31l-99 174h-81v-174 q0 -31 -34 -31q-31 0 -31 31v380q0 29 13 36q10 5 27 5zM404 543h-114v-133h114q36 0 57 18.5t21 46.5t-21.5 48t-56.5 20zM381 61q135 0 217 85.5t82 223.5q0 135 -84 223.5t-219 88.5q-134 0 -219 -88t-85 -221t87 -222.5t221 -89.5z" />
<glyph unicode="&#xb0;" horiz-adv-x="320" d="M99 801q44 0 72 -29t28 -72q0 -42 -28.5 -71t-71.5 -29t-71 29t-28 72q0 41 26.5 70.5t72.5 29.5zM100 650q20 0 34.5 15t14.5 34q0 21 -13.5 36t-35.5 15q-23 0 -36.5 -14.5t-13.5 -35.5t13 -35.5t37 -14.5z" />
<glyph unicode="&#xb1;" d="M70 400h182v159q0 39 38 39q18 0 30.5 -11t12.5 -28v-159h182q23 0 36.5 -11.5t13.5 -29.5q0 -38 -50 -38h-182v-169q0 -17 -12 -27.5t-30 -10.5q-39 0 -39 38v169h-182q-41 0 -41 41q0 38 41 38zM75 76h447q43 0 43 -38q0 -37 -43 -37h-447q-44 0 -44 36q0 16 12 27.5 t32 11.5z" />
<glyph unicode="&#xb2;" horiz-adv-x="337" d="M-1 639q0 46 32.5 74.5t74.5 28.5q41 0 72.5 -26.5t31.5 -67.5q0 -49 -35 -95l-118 -155h140q19 0 19 -19t-19 -19h-166q-27 0 -27 18q0 10 7 18l136 185q22 30 22 63q0 27 -19.5 43t-45.5 16t-45 -17.5t-19 -49.5q0 -8 -5.5 -16t-14.5 -8q-10 0 -15.5 8.5t-5.5 18.5z " />
<glyph unicode="&#xb3;" horiz-adv-x="312" d="M94 743q45 0 72 -28t27 -70q0 -47 -41 -83q56 -36 56 -98q0 -44 -31 -77t-82 -33q-57 0 -89 45q-12 17 -12 35q0 20 17 20q14 0 18 -13q21 -47 66 -47q30 0 51 19t21 52q0 26 -15 47t-43 26q-1 0 -14 0.5t-15 0.5q-23 0 -23 18t22 18q1 0 14.5 0.5t14.5 0.5q21 4 32.5 24 t11.5 44q0 28 -16 45t-44 17q-22 0 -37.5 -14.5t-15.5 -35.5q0 -25 -19 -25q-21 0 -21 26q0 33 27.5 59.5t67.5 26.5z" />
<glyph unicode="&#xb5;" horiz-adv-x="528" d="M-1 -199v717q0 37 38 37q37 0 37 -37v-329q0 -53 35 -86.5t87 -33.5q66 0 107 46.5t41 115.5v287q0 37 38 37q37 0 37 -37v-475q0 -43 -37 -43q-35 0 -37 38q-1 13 -1 35q-57 -81 -157 -81q-32 0 -63.5 14.5t-49.5 39.5v-245q0 -37 -38 -37q-37 0 -37 37z" />
<glyph unicode="&#xb6;" horiz-adv-x="575" d="M194 34v364q-89 0 -141.5 45t-52.5 117q0 94 61.5 144t183.5 50h205q14 -1 23.5 -10.5t9.5 -22.5t-9.5 -23t-23.5 -10h-48v-654q0 -14 -10 -24t-24 -10t-23.5 10t-9.5 24v654h-75v-654q0 -14 -10 -24t-24 -10t-23 10t-9 24z" />
<glyph unicode="&#xb7;" horiz-adv-x="229" d="M0 350q0 21 14.5 35.5t35.5 14.5t35.5 -14.5t14.5 -35.5t-14.5 -35.5t-35.5 -14.5t-35.5 14.5t-14.5 35.5z" />
<glyph unicode="&#xbb;" horiz-adv-x="458" d="M159 96l105 178l-100 155q-9 15 -9 27q0 29 35 29q22 0 31 -15l101 -163q12 -20 12 -34q0 -15 -12 -34l-101 -163q-6 -11 -29 -11q-37 0 -37 21q0 6 4 10zM3 96l104 178l-104 175q-3 5 -3 9q0 10 12 18.5t27 8.5q19 0 28 -15l97 -163q13 -20 13 -34q0 -12 -13 -34 l-97 -163q-6 -11 -27 -11q-40 0 -40 22q0 5 3 9z" />
<glyph unicode="&#xbd;" horiz-adv-x="948" d="M193 35l273 705q9 23 34 23q28 0 28 -28q0 -8 -3 -17l-276 -704q-7 -20 -27 -20q-13 0 -22 8t-9 21q0 8 2 12zM108 222v459l-74 -21q-3 -1 -9 -1q-12 0 -19.5 6.5t-7.5 17.5q0 25 28 32q109 31 115 31q18 0 24 -15q4 -8 4 -38v-471q0 -14 -8.5 -23t-21.5 -9 q-14 0 -22.5 9t-8.5 23zM523 418q0 69 49 112t113 43q61 0 108.5 -40t47.5 -101q0 -72 -54 -143l-177 -232h211q28 0 28 -28q0 -29 -29 -29h-248q-41 0 -41 27q0 12 11 28l204 277q33 46 33 95q0 39 -29.5 63.5t-67.5 24.5q-40 0 -68.5 -26.5t-28.5 -73.5q0 -13 -8 -24.5 t-22 -11.5q-15 0 -23.5 12.5t-8.5 26.5z" />
<glyph unicode="&#x192;" horiz-adv-x="391" d="M87 -52l1 531h-47q-41 0 -41 36q0 39 41 39h47q0 95 31 141.5t115 46.5q44 0 44 -35q0 -33 -44 -33q-46 0 -59.5 -27t-13.5 -93q32 0 64 1q41 0 41 -38q0 -39 -43 -39h-62v-258t-0.5 -145.5t-0.5 -71.5v-55q0 -95 -31 -141.5t-115 -46.5q-44 0 -44 35q0 33 44 33 q46 0 59.5 27t13.5 93z" />
<glyph unicode="&#x384;" horiz-adv-x="358" d="M141 717l-68 -154q-15 -35 -35 -35q-37 0 -37 34q0 9 4 17l67 156q13 28 36 28q35 0 35 -36q0 -4 -2 -10z" />
<glyph unicode="&#x385;" horiz-adv-x="477" d="M0 650q0 21 14.5 35.5t35.5 14.5t35.5 -14.5t14.5 -35.5t-14.5 -35.5t-35.5 -14.5t-35.5 14.5t-14.5 35.5zM300 650q0 21 14.5 35.5t35.5 14.5t35.5 -14.5t14.5 -35.5t-14.5 -35.5t-35.5 -14.5t-35.5 14.5t-14.5 35.5zM299 787l-68 -154q-15 -35 -36 -35q-19 0 -29 9.5 t-10 24.5q0 9 4 17l67 156q13 28 38 28q36 0 36 -36q0 -4 -2 -10z" />
<glyph unicode="&#x386;" horiz-adv-x="691" d="M309 638l-150 -410h296zM534 24l-52 128h-344l-41 -114q-14 -38 -45 -38q-32 0 -32 35q0 8 4 20l226 640q16 45 58 45t58 -45l234 -640q4 -9 4 -21q0 -34 -34 -34q-27 0 -36 24zM141 717l-68 -154q-15 -35 -35 -35q-37 0 -37 34q0 9 4 17l67 156q13 28 36 28q35 0 35 -36 q0 -4 -2 -10z" />
<glyph unicode="&#x388;" horiz-adv-x="705" d="M210 45v650q0 45 41 45h304q37 0 37 -37q0 -36 -37 -36h-272v-246h224q37 0 37 -38q0 -35 -37 -35h-224v-275h280q43 0 43 -37q0 -36 -43 -36h-312q-26 0 -33.5 8.5t-7.5 36.5zM141 717l-68 -154q-15 -35 -35 -35q-37 0 -37 34q0 9 4 17l67 156q13 28 36 28q35 0 35 -36 q0 -4 -2 -10z" />
<glyph unicode="&#x389;" horiz-adv-x="892" d="M220 36v669q0 37 36 37q37 0 37 -37v-292h413v292q0 37 36 37q38 0 38 -37v-669q0 -36 -38 -36q-36 0 -36 36v303h-413v-303q0 -36 -36 -36q-37 0 -37 36zM141 717l-68 -154q-15 -35 -35 -35q-37 0 -37 34q0 9 4 17l67 156q13 28 36 28q35 0 35 -36q0 -4 -2 -10z" />
<glyph unicode="&#x38a;" horiz-adv-x="408" d="M210 37v668q0 37 36 37q37 0 37 -37v-668q0 -37 -37 -37q-36 0 -36 37zM141 717l-68 -154q-15 -35 -35 -35q-37 0 -37 34q0 9 4 17l67 156q13 28 36 28q35 0 35 -36q0 -4 -2 -10z" />
<glyph unicode="&#x38c;" horiz-adv-x="867" d="M438 765q103 0 178 -57.5t110 -144t35 -187.5q0 -100 -35 -186t-110 -143t-178 -57q-101 0 -175 57.5t-108.5 144.5t-34.5 187q0 74 20.5 142t58.5 123t100 88t139 33zM438 690q-77 0 -133.5 -45.5t-82 -114t-25.5 -149.5q0 -83 26.5 -154t83 -118t133.5 -47q78 0 135 46 t82.5 114.5t25.5 150.5q0 129 -64.5 223t-180.5 94zM141 717l-68 -154q-15 -35 -35 -35q-37 0 -37 34q0 9 4 17l67 156q13 28 36 28q35 0 35 -36q0 -4 -2 -10z" />
<glyph unicode="&#x38e;" horiz-adv-x="766" d="M397 43v305l-190 333q-7 13 -7 26q0 35 33 35q19 0 31 -21l175 -292l171 290q14 23 36 23q33 0 33 -32q0 -10 -6 -21l-201 -341v-305q0 -43 -37 -43q-38 0 -38 43zM141 717l-68 -154q-15 -35 -35 -35q-37 0 -37 34q0 9 4 17l67 156q13 28 36 28q35 0 35 -36q0 -4 -2 -10z " />
<glyph unicode="&#x38f;" horiz-adv-x="890" d="M249 73h443q34 0 34 -37q0 -36 -34 -36h-443q-34 0 -34 36q0 37 34 37zM468 765q74 0 134 -27t98 -71.5t58 -99.5t20 -114q0 -124 -81.5 -213.5t-228.5 -89.5q-144 0 -224.5 90.5t-80.5 214.5q0 126 81 218t224 92zM469 693q-108 0 -169.5 -70.5t-61.5 -166.5t61 -165.5 t171 -69.5q113 0 174 66.5t61 160.5q0 98 -63.5 171.5t-172.5 73.5zM141 717l-68 -154q-15 -35 -35 -35q-37 0 -37 34q0 9 4 17l67 156q13 28 36 28q35 0 35 -36q0 -4 -2 -10z" />
<glyph unicode="&#x390;" horiz-adv-x="186" d="M77 36v488q0 37 -40 37q-38 0 -38 -37v-488q0 -36 38 -36q40 0 40 36zM-150 710q0 21 14.5 35.5t35.5 14.5t35.5 -14.5t14.5 -35.5t-14.5 -35.5t-35.5 -14.5t-35.5 14.5t-14.5 35.5zM150 710q0 21 14.5 35.5t35.5 14.5t35.5 -14.5t14.5 -35.5t-14.5 -35.5t-35.5 -14.5 t-35.5 14.5t-14.5 35.5zM149 847l-68 -154q-15 -35 -36 -35q-19 0 -29 9.5t-10 24.5q0 9 4 17l67 156q13 28 38 28q36 0 36 -36q0 -4 -2 -10z" />
<glyph unicode="&#x391;" horiz-adv-x="678" d="M289 638l-150 -410h296zM514 24l-52 128h-344l-41 -114q-14 -38 -45 -38q-32 0 -32 35q0 8 4 20l226 640q16 45 58 45t58 -45l234 -640q4 -9 4 -21q0 -34 -34 -34q-27 0 -36 24z" />
<glyph unicode="&#x392;" horiz-adv-x="577" d="M0 49v643q0 48 41 48h153q34 0 69 -10t68.5 -29.5t54.5 -55.5t21 -81q0 -54 -32 -98.5t-81 -59.5q69 -11 120 -68t51 -130q0 -90 -62.5 -149t-149.5 -59h-195q-33 0 -44 8q-14 9 -14 41zM74 362v-289h149q68 0 113.5 35.5t45.5 98.5q0 72 -57.5 113.5t-136.5 41.5h-114z M74 430h90q65 0 115 30t50 89q0 53 -42.5 85.5t-98.5 32.5h-114v-237z" />
<glyph unicode="&#x393;" horiz-adv-x="492" d="M0 37v656q0 48 41 48h315q17 0 28 -11t11 -27q0 -35 -39 -35h-282v-631q0 -37 -38 -37q-36 0 -36 37z" />
<glyph unicode="&#x394;" horiz-adv-x="695" d="M300 640l-204 -561h415zM549 0h-503q-46 0 -46 25q0 9 4 18l239 654q16 46 57 46q44 0 57 -46l248 -654q4 -9 4 -19q0 -24 -60 -24z" />
<glyph unicode="&#x395;" horiz-adv-x="492" d="M0 45v650q0 45 41 45h304q37 0 37 -37q0 -36 -37 -36h-272v-246h224q37 0 37 -38q0 -35 -37 -35h-224v-275h280q43 0 43 -37q0 -36 -43 -36h-312q-26 0 -33.5 8.5t-7.5 36.5z" />
<glyph unicode="&#x396;" horiz-adv-x="600" d="M11 81l389 587h-348q-38 0 -38 36q0 37 38 37h402q50 0 50 -32q0 -18 -20 -49l-389 -587h383q39 0 39 -35q0 -38 -39 -38h-443q-35 0 -35 42q0 22 11 39z" />
<glyph unicode="&#x397;" horiz-adv-x="677" d="M0 36v669q0 37 36 37q37 0 37 -37v-292h413v292q0 37 36 37q38 0 38 -37v-669q0 -36 -38 -36q-36 0 -36 36v303h-413v-303q0 -36 -36 -36q-37 0 -37 36z" />
<glyph unicode="&#x398;" horiz-adv-x="746" d="M456 343h-277q-37 0 -37 37t37 37h277q37 0 37 -38q0 -36 -37 -36zM318 765q103 0 178 -57.5t110 -144t35 -187.5q0 -100 -35 -186t-110 -143t-178 -57q-101 0 -175 57.5t-108.5 144.5t-34.5 187q0 74 20.5 142t58.5 123t100 88t139 33zM319 690q-77 0 -133.5 -45.5 t-82 -114t-25.5 -149.5q0 -83 26.5 -154t83 -118t133.5 -47q78 0 135 46t82.5 114.5t25.5 150.5q0 129 -64.5 223t-180.5 94z" />
<glyph unicode="&#x399;" horiz-adv-x="191" d="M0 37v668q0 37 36 37q37 0 37 -37v-668q0 -37 -37 -37q-36 0 -36 37z" />
<glyph unicode="&#x39a;" horiz-adv-x="593" d="M0 32v679q0 31 36 31q38 0 38 -31v-365l349 385q8 9 23 9q16 0 28.5 -12.5t12.5 -27.5q0 -14 -10 -23l-215 -235l232 -377q12 -11 12 -29q0 -16 -13.5 -26.5t-23.5 -10.5q-19 0 -34 17l-227 371l-134 -141v-214q0 -32 -36 -32q-38 0 -38 32z" />
<glyph unicode="&#x39b;" horiz-adv-x="688" d="M522 40l-226 600l-220 -610q-10 -30 -37 -30q-16 0 -27.5 9t-11.5 23q0 5 2 11l237 654q16 46 57 46t57 -46l242 -641q5 -15 5 -24q0 -15 -10 -23.5t-26 -8.5t-25 9.5t-17 30.5z" />
<glyph unicode="&#x39c;" horiz-adv-x="908" d="M234 677l164 -545l168 545q20 65 72 65t62 -73l93 -624q0 -1 0.5 -4t0.5 -4q0 -16 -10.5 -26t-26.5 -10q-34 0 -40 40l-85 607l-195 -605q-13 -43 -41 -43t-41 43l-188 606l-92 -607q-6 -41 -40 -41q-35 0 -35 34q0 8 1 12l99 622q12 75 64 75q51 0 70 -67z" />
<glyph unicode="&#x39d;" horiz-adv-x="668" d="M0 38v660q0 44 36 44q28 0 52 -36l390 -574v571q0 38 36 38q37 0 37 -38v-659q0 -44 -36 -44q-29 0 -50 30l-392 572v-564q0 -38 -36 -38q-37 0 -37 38z" />
<glyph unicode="&#x39e;" horiz-adv-x="649" d="M48 741h445q37 0 37 -37q0 -36 -37 -36h-445q-37 0 -37 36q0 37 37 37zM118 421h296q37 0 37 -38q0 -35 -37 -35h-296q-36 0 -36 38q0 35 36 35zM40 76h462q42 0 42 -38q0 -36 -42 -36h-462q-43 0 -43 37t43 37z" />
<glyph unicode="&#x39f;" horiz-adv-x="747" d="M318 765q103 0 178 -57.5t110 -144t35 -187.5q0 -100 -35 -186t-110 -143t-178 -57q-101 0 -175 57.5t-108.5 144.5t-34.5 187q0 74 20.5 142t58.5 123t100 88t139 33zM318 690q-77 0 -133.5 -45.5t-82 -114t-25.5 -149.5q0 -83 26.5 -154t83 -118t133.5 -47q78 0 135 46 t82.5 114.5t25.5 150.5q0 129 -64.5 223t-180.5 94z" />
<glyph unicode="&#x3a0;" horiz-adv-x="660" d="M36 743h475q15 0 26.5 -11.5t11.5 -26.5v-668q0 -37 -36 -37q-37 0 -37 37v631h-403v-631q0 -37 -38 -37q-35 0 -35 37v668q0 38 36 38z" />
<glyph unicode="&#x3a1;" horiz-adv-x="536" d="M0 37v664q0 40 41 40h172q104 0 174.5 -63.5t70.5 -163.5q0 -94 -70 -158.5t-169 -64.5h-146v-254q0 -37 -36 -37q-37 0 -37 37zM199 668h-126v-304h142q71 0 119 41.5t48 109.5q0 71 -50.5 112t-132.5 41z" />
<glyph unicode="&#x3a3;" horiz-adv-x="583" d="M117 667l165 -252q10 -14 10 -27q0 -10 -7 -20l-192 -295h386q37 0 37 -38q0 -35 -37 -35h-444q-35 0 -35 42q0 22 11 39l187 289q7 12 7 20q0 10 -9 23l-164 246q-19 28 -19 49q0 33 51 33h402q37 0 37 -38q0 -36 -37 -36h-349z" />
<glyph unicode="&#x3a4;" horiz-adv-x="531" d="M187 42v626h-147q-40 0 -40 36q0 37 40 37h369q38 0 38 -37q0 -36 -38 -36h-148v-626q0 -42 -36 -42q-38 0 -38 42z" />
<glyph unicode="&#x3a5;" horiz-adv-x="568" d="M197 43v305l-190 333q-7 13 -7 26q0 35 33 35q19 0 31 -21l175 -292l171 290q14 23 36 23q33 0 33 -32q0 -10 -6 -21l-201 -341v-305q0 -43 -37 -43q-38 0 -38 43z" />
<glyph unicode="&#x3a6;" horiz-adv-x="753" d="M298 675v54q0 37 37 37t37 -37q0 -2 -2 -54q120 0 209 -75.5t89 -191.5q0 -115 -89 -188.5t-208 -73.5v-108q0 -38 -36 -38q-37 0 -37 38v108q-126 0 -212 73t-86 190q0 116 89.5 191t208.5 75zM298 215v391q-94 0 -160.5 -55t-66.5 -142q0 -86 69 -140t158 -54zM371 606 v-391q95 0 160.5 52.5t65.5 140.5t-66 143t-160 55z" />
<glyph unicode="&#x3a7;" horiz-adv-x="662" d="M12 62l222 345l-196 276q-9 13 -9 25q0 15 10 24.5t25 9.5q20 0 33 -18l183 -251l161 250q12 18 31 18q14 0 25 -10.5t11 -25.5q0 -12 -8 -23l-180 -266l234 -352q14 -22 14 -37q0 -28 -29 -28q-22 0 -38 22l-225 327l-209 -326q-15 -23 -38 -23q-29 0 -29 29q0 16 12 34 z" />
<glyph unicode="&#x3a8;" horiz-adv-x="755" d="M365 729v-500q108 0 163 60.5t55 172.5v244q0 37 37 37q38 0 38 -37v-257q0 -134 -80.5 -212t-212.5 -78v-123q0 -36 -37 -36q-36 0 -36 36v123q-133 3 -212.5 80.5t-79.5 209.5v257q0 36 38 36q35 0 35 -36v-244q0 -104 59 -168.5t160 -64.5v500q0 37 36 37q37 0 37 -37 z" />
<glyph unicode="&#x3a9;" horiz-adv-x="730" d="M89 73h443q34 0 34 -37q0 -36 -34 -36h-443q-34 0 -34 36q0 37 34 37zM308 765q74 0 134 -27t98 -71.5t58 -99.5t20 -114q0 -124 -81.5 -213.5t-228.5 -89.5q-144 0 -224.5 90.5t-80.5 214.5q0 126 81 218t224 92zM309 693q-108 0 -169.5 -70.5t-61.5 -166.5t61 -165.5 t171 -69.5q113 0 174 66.5t61 160.5q0 98 -63.5 171.5t-172.5 73.5z" />
<glyph unicode="&#x3aa;" horiz-adv-x="191" d="M0 705v-668q0 -37 36 -37q37 0 37 37v668q0 37 -37 37q-36 0 -36 -37zM-118 840q0 21 14.5 35.5t35.5 14.5t35.5 -14.5t14.5 -35.5t-14.5 -35.5t-35.5 -14.5t-35.5 14.5t-14.5 35.5zM82 840q0 21 14.5 35.5t35.5 14.5t35.5 -14.5t14.5 -35.5t-14.5 -35.5t-35.5 -14.5 t-35.5 14.5t-14.5 35.5z" />
<glyph unicode="&#x3ab;" horiz-adv-x="568" d="M197 348v-305q0 -43 38 -43q37 0 37 43v305l201 341q6 11 6 21q0 32 -33 32q-22 0 -36 -23l-171 -290l-175 292q-12 21 -31 21q-33 0 -33 -35q0 -13 7 -26zM85 840q0 21 14.5 35.5t35.5 14.5t35.5 -14.5t14.5 -35.5t-14.5 -35.5t-35.5 -14.5t-35.5 14.5t-14.5 35.5z M285 840q0 21 14.5 35.5t35.5 14.5t35.5 -14.5t14.5 -35.5t-14.5 -35.5t-35.5 -14.5t-35.5 14.5t-14.5 35.5z" />
<glyph unicode="&#x3ac;" horiz-adv-x="596" d="M394 475v46q0 39 39 39q37 0 37 -39v-488q0 -33 -37 -33q-39 0 -39 34v60q-20 -42 -65 -74.5t-97 -32.5q-111 0 -172 84t-61 202q0 55 15 107.5t43 96t73.5 70t101.5 26.5q50 0 98.5 -26t63.5 -72zM231 55q65 0 115 61.5t50 161.5q0 101 -48 162t-113 61q-73 0 -115 -68 t-42 -160q0 -89 40.5 -153.5t112.5 -64.5zM341 837l-68 -154q-15 -35 -35 -35q-37 0 -37 34q0 9 4 17l67 156q13 28 36 28q35 0 35 -36q0 -4 -2 -10z" />
<glyph unicode="&#x3ad;" horiz-adv-x="483" d="M205 -17q-94 0 -153 46t-59 109q0 43 36.5 88t91.5 60q-51 18 -76 51.5t-25 68.5q0 65 59.5 109.5t140.5 44.5q56 0 106.5 -15.5t50.5 -46.5q0 -16 -10.5 -28t-25.5 -12q-10 0 -34 11q-44 22 -89 22q-55 0 -89.5 -26.5t-34.5 -65.5q0 -25 27 -49t69 -24h61q23 0 35 -11 t12 -27q0 -15 -11.5 -26.5t-32.5 -11.5h-62q-55 -11 -87.5 -40t-32.5 -64q0 -39 35.5 -66t100.5 -27q58 0 113 22q34 12 46 12q15 0 22.5 -8t7.5 -20q0 -21 -20.5 -37t-52.5 -24t-62 -11.5t-57 -3.5zM291 837l-68 -154q-15 -35 -35 -35q-37 0 -37 34q0 9 4 17l67 156 q13 28 36 28q35 0 35 -36q0 -4 -2 -10z" />
<glyph unicode="&#x3ae;" horiz-adv-x="526" d="M-1 36v488q0 39 37 39q38 0 38 -39v-34q47 83 149 83q77 0 136.5 -53t59.5 -138v-586q0 -36 -38 -36q-37 0 -37 36v554q0 71 -39.5 110.5t-93.5 39.5q-56 0 -96.5 -40t-40.5 -110v-314q0 -36 -38 -36q-37 0 -37 36zM281 837l-68 -154q-15 -35 -35 -35q-37 0 -37 34 q0 9 4 17l67 156q13 28 36 28q35 0 35 -36q0 -4 -2 -10z" />
<glyph unicode="&#x3af;" horiz-adv-x="186" d="M77 524v-488q0 -36 -40 -36q-38 0 -38 36v488q0 37 38 37q40 0 40 -37zM141 837l-68 -154q-15 -35 -35 -35q-37 0 -37 34q0 9 4 17l67 156q13 28 36 28q35 0 35 -36q0 -4 -2 -10z" />
<glyph unicode="&#x3b0;" horiz-adv-x="529" d="M-1 518v-337q0 -84 62 -138.5t147 -54.5t148 55.5t63 137.5v337q0 37 -38 37q-37 0 -37 -37v-313q0 -61 -38.5 -101.5t-97.5 -40.5t-96.5 40.5t-37.5 101.5v313q0 37 -38 37q-37 0 -37 -37zM10 710q0 21 14.5 35.5t35.5 14.5t35.5 -14.5t14.5 -35.5t-14.5 -35.5 t-35.5 -14.5t-35.5 14.5t-14.5 35.5zM310 710q0 21 14.5 35.5t35.5 14.5t35.5 -14.5t14.5 -35.5t-14.5 -35.5t-35.5 -14.5t-35.5 14.5t-14.5 35.5zM309 847l-68 -154q-15 -35 -36 -35q-19 0 -29 9.5t-10 24.5q0 9 4 17l67 156q13 28 38 28q36 0 36 -36q0 -4 -2 -10z" />
<glyph unicode="&#x3b1;" horiz-adv-x="596" d="M394 475v46q0 39 39 39q37 0 37 -39v-488q0 -33 -37 -33q-39 0 -39 34v60q-20 -42 -65 -74.5t-97 -32.5q-111 0 -172 84t-61 202q0 55 15 107.5t43 96t73.5 70t101.5 26.5q50 0 98.5 -26t63.5 -72zM231 55q65 0 115 61.5t50 161.5q0 101 -48 162t-113 61q-73 0 -115 -68 t-42 -160q0 -89 40.5 -153.5t112.5 -64.5z" />
<glyph unicode="&#x3b2;" horiz-adv-x="562" d="M75 52v-239q0 -43 -38 -43t-38 42v747q0 97 53.5 156.5t154.5 59.5q88 0 140.5 -59t52.5 -135q0 -35 -25.5 -74t-53.5 -54q64 -30 101.5 -90t37.5 -123q0 -98 -66.5 -173t-173.5 -75q-100 0 -145 60zM75 520l-1 -312q0 -65 41.5 -104.5t106.5 -39.5q67 0 112.5 53 t45.5 126q0 55 -34 98t-87 61q-3 0 -51 3q-5 0 -12.5 0.5t-11 1t-4.5 0.5q-41 7 -41 35t40 35q18 0 35 1q32 0 36 2q33 11 51.5 39.5t18.5 64.5q0 51 -32 85.5t-82 34.5q-40 0 -67 -13.5t-40.5 -40.5t-18.5 -57.5t-5 -72.5z" />
<glyph unicode="&#x3b3;" horiz-adv-x="533" d="M184 -185v204l-183 502q-2 6 -2 15q0 14 12.5 24t27.5 10q32 0 46 -40l139 -405l139 407q14 38 42 38q15 0 27.5 -11.5t12.5 -27.5q0 -9 -2 -13l-23 -62q-138 -367 -156 -437v-205q0 -47 -41 -47q-39 0 -39 48z" />
<glyph unicode="&#x3b4;" horiz-adv-x="576" d="M238 429q-74 0 -117.5 -54.5t-43.5 -126.5q0 -76 46.5 -133t115.5 -57q73 0 118.5 49.5t45.5 126.5q0 84 -44.5 139.5t-120.5 55.5zM425 703q0 -11 -9 -21t-21 -10q-9 0 -35 8q-35 17 -86 17q-60 0 -91 -20t-31 -52q0 -31 33.5 -63.5t86.5 -53.5q41 -16 72.5 -35 t64.5 -50t51 -77t18 -104q0 -108 -63.5 -180.5t-174.5 -72.5q-110 0 -175.5 75.5t-65.5 182.5q0 76 51 146t129 93q-44 23 -72.5 62t-28.5 77q0 60 51 102t149 42q42 0 94.5 -18t52.5 -48z" />
<glyph unicode="&#x3b5;" horiz-adv-x="483" d="M205 -17q-94 0 -153 46t-59 109q0 43 36.5 88t91.5 60q-51 18 -76 51.5t-25 68.5q0 65 59.5 109.5t140.5 44.5q56 0 106.5 -15.5t50.5 -46.5q0 -16 -10.5 -28t-25.5 -12q-10 0 -34 11q-44 22 -89 22q-55 0 -89.5 -26.5t-34.5 -65.5q0 -25 27 -49t69 -24h61q23 0 35 -11 t12 -27q0 -15 -11.5 -26.5t-32.5 -11.5h-62q-55 -11 -87.5 -40t-32.5 -64q0 -39 35.5 -66t100.5 -27q58 0 113 22q34 12 46 12q15 0 22.5 -8t7.5 -20q0 -21 -20.5 -37t-52.5 -24t-62 -11.5t-57 -3.5z" />
<glyph unicode="&#x3b6;" horiz-adv-x="520" d="M340 -194q-13 0 -23 11t-10 23q0 6 15 32q20 32 20 56q0 20 -16.5 33.5t-33.5 19t-55 14.5q-29 7 -45.5 11.5t-45.5 15.5t-46 22.5t-38.5 32t-33.5 45.5t-20.5 61.5t-8.5 80.5q0 118 87 246.5t202 190.5h-195q-21 0 -34.5 9t-13.5 26q0 18 13.5 27.5t34.5 9.5h291 q38 0 38 -35q0 -28 -36 -39q-34 -13 -84 -53.5t-100.5 -97.5t-85.5 -132.5t-35 -146.5q0 -35 6.5 -63t15 -47.5t25.5 -36t30 -26t37 -18.5t38 -12.5t40 -10.5q50 -13 67 -19q75 -29 75 -101q0 -48 -20.5 -88.5t-54.5 -40.5z" />
<glyph unicode="&#x3b7;" horiz-adv-x="526" d="M-1 36v488q0 39 37 39q38 0 38 -39v-34q47 83 149 83q77 0 136.5 -53t59.5 -138v-586q0 -36 -38 -36q-37 0 -37 36v554q0 71 -39.5 110.5t-93.5 39.5q-56 0 -96.5 -40t-40.5 -110v-314q0 -36 -38 -36q-37 0 -37 36z" />
<glyph unicode="&#x3b8;" horiz-adv-x="586" d="M240 774q64 0 113.5 -39.5t76 -102.5t39.5 -129t13 -130q0 -68 -13.5 -132t-40.5 -121.5t-76.5 -92.5t-113.5 -35q-65 0 -114 36.5t-75 96t-38 122.5t-12 129t12.5 131t39 127.5t75.5 101t114 38.5zM327 348h-172q-36 0 -36 35q0 39 36 39h172q34 0 34 -39q0 -35 -34 -35 zM244 699q-46 0 -81 -34t-52.5 -87.5t-26 -105.5t-8.5 -100q0 -47 8 -96.5t25.5 -99t51.5 -81t80 -31.5q45 0 78.5 32t50.5 82.5t24.5 99.5t7.5 96q0 46 -7.5 97.5t-24.5 105t-49.5 88t-76.5 34.5z" />
<glyph unicode="&#x3b9;" horiz-adv-x="186" d="M77 524v-488q0 -36 -40 -36q-38 0 -38 36v488q0 37 38 37q40 0 40 -37z" />
<glyph unicode="&#x3ba;" horiz-adv-x="522" d="M-1 36v487q0 37 38 37q37 0 37 -37v-245l285 269q11 9 25 9q16 0 27 -9.5t11 -24.5t-21 -36l-160 -150q21 -30 85.5 -120.5t98.5 -138.5q16 -27 16 -42q0 -18 -10 -27.5t-24 -9.5q-25 0 -38 22l-186 265l-109 -99v-150q0 -36 -38 -36q-37 0 -37 36z" />
<glyph unicode="&#x3bb;" horiz-adv-x="541" d="M5 50l173 460q-6 15 -36 98t-43 120q-2 8 -2 12q0 15 12 24t29 9q31 0 47 -43l232 -669q5 -15 5 -25q0 -36 -35 -36q-33 0 -45 34l-126 369l-133 -366q-13 -37 -46 -37q-36 0 -36 31q0 10 4 19z" />
<glyph unicode="&#x3bc;" horiz-adv-x="528" d="M0 -199v717q0 37 37 37q36 0 36 -37v-329q0 -53 35.5 -86.5t87.5 -33.5q67 0 108 46.5t41 115.5v287q0 37 37 37q36 0 36 -37v-475q0 -43 -36 -43t-36 38q-1 16 -1 38q-55 -84 -158 -84q-32 0 -64 15.5t-50 41.5v-248q0 -37 -37 -37q-36 0 -36 37z" />
<glyph unicode="&#x3bd;" horiz-adv-x="509" d="M81 512l124 -379l126 380q15 43 46 43q36 0 36 -35q0 -9 -3 -16l-163 -475q-11 -30 -45 -30q-30 0 -41 30l-159 474q-3 9 -3 17q0 16 10.5 25.5t27.5 9.5q29 0 44 -44z" />
<glyph unicode="&#x3be;" horiz-adv-x="507" d="M330 -194q-13 0 -23 11t-10 23q0 6 15 32q20 32 20 56q0 35 -49 52q-21 7 -53 15q-33 8 -51 13.5t-50 17t-51 25.5t-39.5 34t-30 47.5t-9.5 60.5q0 80 59 142t126 76q-63 19 -94 52t-31 73q0 59 57 108.5t142 56.5h-165q-21 0 -34.5 9t-13.5 26q0 18 13.5 27.5t34.5 9.5 h281q38 0 38 -35q0 -38 -32 -42q-31 -3 -66 -12t-77 -25.5t-69.5 -47t-27.5 -68.5t49.5 -65.5t86.5 -27.5q23 0 40 -11.5t17 -29.5t-16.5 -29.5t-37.5 -11.5q-32 0 -65.5 -11t-62.5 -31t-47.5 -54.5t-18.5 -76.5q0 -25 12 -46.5t28 -34.5t44 -25.5t47 -18.5t50 -15 q20 -5 46 -13q41 -13 67.5 -40.5t26.5 -66.5q0 -42 -21.5 -85.5t-54.5 -43.5z" />
<glyph unicode="&#x3bf;" horiz-adv-x="572" d="M242 573q76 0 133 -44.5t83.5 -111t26.5 -143.5q0 -119 -64.5 -202t-178.5 -83t-178.5 86t-64.5 206t64.5 206t178.5 86zM242 501q-80 0 -121.5 -63t-41.5 -150q0 -55 16 -105.5t54.5 -87.5t92.5 -37q80 0 122 62t42 148q0 87 -43.5 160t-120.5 73z" />
<glyph unicode="&#x3c0;" horiz-adv-x="536" d="M-1 36v483q0 16 9.5 27.5t24.5 11.5h355q37 0 37 -40v-482q0 -36 -37 -36t-37 36v452h-276v-452q0 -36 -39 -36q-37 0 -37 36z" />
<glyph unicode="&#x3c1;" horiz-adv-x="576" d="M247 502q-83 0 -126 -57.5t-43 -160.5q0 -108 49 -165.5t117 -57.5q64 0 111 57.5t47 156.5q0 41 -8.5 79.5t-26 72.5t-49 54.5t-71.5 20.5zM0 -193v475q0 127 64.5 209t177.5 82q115 0 174.5 -82t59.5 -215q0 -128 -66.5 -207.5t-169.5 -79.5q-45 0 -89.5 23t-74.5 72 v-277q0 -37 -39 -37q-37 0 -37 37z" />
<glyph unicode="&#x3c2;" horiz-adv-x="582" d="M299 485q-83 0 -142.5 -60t-59.5 -158q0 -37 7 -67t23 -50.5t31 -34.5t41 -24.5t42.5 -15.5t45.5 -12t45.5 -11.5t39 -15t34.5 -23t20.5 -33t8.5 -47.5q0 -48 -20.5 -88.5t-54.5 -40.5q-13 0 -23 11t-10 23q0 8 13 32q19 41 19 56q0 19 -16 33t-33.5 20t-52.5 15 q-28 7 -45.5 12t-46 16.5t-46.5 24t-40 34.5t-34.5 48.5t-21 64.5t-8.5 84q0 123 88 206t200 83q56 0 116 -27q15 -7 25 -18t10 -20q0 -17 -10.5 -29.5t-25.5 -12.5q-4 0 -10 2q-54 23 -109 23z" />
<glyph unicode="&#x3c3;" horiz-adv-x="651" d="M250 567l272 -1q20 -2 34 -12t14 -27q0 -14 -12.5 -26t-28.5 -12q-15 0 -144 11q45 -32 73 -97.5t28 -132.5q0 -119 -66.5 -200t-182.5 -81q-76 0 -131.5 44t-81 110.5t-25.5 143.5q0 120 67 200t184 80zM241 59q79 0 124 62t45 145q0 86 -44.5 159t-121.5 73 q-78 0 -121.5 -63.5t-43.5 -148.5q0 -54 16.5 -104t54.5 -86.5t91 -36.5z" />
<glyph unicode="&#x3c4;" horiz-adv-x="540" d="M31 556h348q40 0 40 -34t-38 -34h-139v-309q0 -66 13 -93t59 -27q45 0 45 -33q0 -35 -45 -35q-85 0 -116 46.5t-31 141.5v308h-131q-37 0 -37 36q0 33 32 33z" />
<glyph unicode="&#x3c5;" horiz-adv-x="529" d="M-1 181v337q0 37 37 37q38 0 38 -37v-313q0 -61 37.5 -101.5t96.5 -40.5t97.5 40.5t38.5 101.5v313q0 37 37 37q38 0 38 -37v-337q0 -82 -63 -137.5t-148 -55.5t-147 54.5t-62 138.5z" />
<glyph unicode="&#x3c6;" horiz-adv-x="749" d="M151 564q8 5 20 5q14 0 24.5 -7.5t10.5 -18.5q0 -18 -22 -36q-50 -41 -79 -106.5t-29 -132.5q0 -79 47 -137t138 -70v250q0 48 2.5 80t12.5 70t27.5 60.5t50.5 37.5t80 15q64 0 112.5 -45t70 -107t21.5 -127q0 -130 -84 -215.5t-218 -87.5v-186q0 -38 -37 -38 q-38 0 -38 38v186q-87 3 -147.5 44t-87 101.5t-26.5 133.5q0 89 40 170t111 123zM336 309v-248q102 1 162.5 67.5t60.5 167.5q0 45 -11.5 91t-41.5 84t-72 38q-26 0 -44 -10t-27.5 -22.5t-15.5 -38t-7 -40.5t-2 -47t-2 -42z" />
<glyph unicode="&#x3c7;" horiz-adv-x="526" d="M8 -172l168 365l-145 298q-8 18 -8 30q0 37 37 37q28 0 38 -24l122 -257l136 255q12 24 36 24q16 0 27 -11t11 -28q0 -14 -7 -28l-161 -296l180 -363q8 -18 8 -29q0 -10 -4 -17q-8 -17 -30 -17q-31 0 -47 34l-150 312q-23 -53 -69.5 -158t-69.5 -158q-14 -32 -49 -32 q-22 0 -29 16q-3 6 -3 14q0 11 9 33z" />
<glyph unicode="&#x3c8;" horiz-adv-x="694" d="M326 587v-530q88 1 131.5 61t43.5 160v244q0 46 37 46q17 0 29 -13t12 -34v-236q0 -128 -66.5 -211t-186.5 -85v-170q0 -53 -38 -53q-37 0 -37 53v170q-120 2 -186 85.5t-66 210.5v236q0 48 36 48q17 0 29.5 -13.5t12.5 -33.5v-237q0 -225 174 -228v530q0 40 37 40 q38 0 38 -40z" />
<glyph unicode="&#x3c9;" horiz-adv-x="679" d="M418 -9q-90 0 -131 116q-21 -58 -56.5 -86.5t-76.5 -28.5q-60 0 -106.5 62.5t-46.5 158.5q0 113 34.5 200t92.5 138q11 9 30 9q13 0 20.5 -8.5t7.5 -21.5q0 -9 -13 -24q-1 -2 -5 -6q-92 -111 -92 -281q0 -74 26 -115t62 -41q29 0 54 32.5t31 88.5v193q0 20 12 31.5 t28 11.5q15 0 26 -10.5t11 -28.5v-197q6 -56 31 -88.5t54 -32.5q36 0 63 41.5t27 115.5q0 165 -97 282q-15 18 -15 30q0 13 7.5 21.5t20.5 8.5q19 0 30 -9q127 -112 127 -333q0 -103 -46.5 -166t-109.5 -63z" />
<glyph unicode="&#x3ca;" horiz-adv-x="186" d="M77 36v488q0 37 -40 37q-38 0 -38 -37v-488q0 -36 38 -36q40 0 40 36zM-112 710q0 21 14.5 35.5t35.5 14.5t35.5 -14.5t14.5 -35.5t-14.5 -35.5t-35.5 -14.5t-35.5 14.5t-14.5 35.5zM88 710q0 21 14.5 35.5t35.5 14.5t35.5 -14.5t14.5 -35.5t-14.5 -35.5t-35.5 -14.5 t-35.5 14.5t-14.5 35.5z" />
<glyph unicode="&#x3cb;" horiz-adv-x="529" d="M-1 518v-337q0 -84 62 -138.5t147 -54.5t148 55.5t63 137.5v337q0 37 -38 37q-37 0 -37 -37v-313q0 -61 -38.5 -101.5t-97.5 -40.5t-96.5 40.5t-37.5 101.5v313q0 37 -38 37q-37 0 -37 -37zM53 710q0 21 14.5 35.5t35.5 14.5t35.5 -14.5t14.5 -35.5t-14.5 -35.5 t-35.5 -14.5t-35.5 14.5t-14.5 35.5zM253 710q0 21 14.5 35.5t35.5 14.5t35.5 -14.5t14.5 -35.5t-14.5 -35.5t-35.5 -14.5t-35.5 14.5t-14.5 35.5z" />
<glyph unicode="&#x3cc;" horiz-adv-x="572" d="M242 573q76 0 133 -44.5t83.5 -111t26.5 -143.5q0 -119 -64.5 -202t-178.5 -83t-178.5 86t-64.5 206t64.5 206t178.5 86zM242 501q-80 0 -121.5 -63t-41.5 -150q0 -55 16 -105.5t54.5 -87.5t92.5 -37q80 0 122 62t42 148q0 87 -43.5 160t-120.5 73zM341 837l-68 -154 q-15 -35 -35 -35q-37 0 -37 34q0 9 4 17l67 156q13 28 36 28q35 0 35 -36q0 -4 -2 -10z" />
<glyph unicode="&#x3cd;" horiz-adv-x="529" d="M-1 181v337q0 37 37 37q38 0 38 -37v-313q0 -61 37.5 -101.5t96.5 -40.5t97.5 40.5t38.5 101.5v313q0 37 37 37q38 0 38 -37v-337q0 -82 -63 -137.5t-148 -55.5t-147 54.5t-62 138.5zM301 837l-68 -154q-15 -35 -35 -35q-37 0 -37 34q0 9 4 17l67 156q13 28 36 28 q35 0 35 -36q0 -4 -2 -10z" />
<glyph unicode="&#x3ce;" horiz-adv-x="679" d="M418 -9q-90 0 -131 116q-21 -58 -56.5 -86.5t-76.5 -28.5q-60 0 -106.5 62.5t-46.5 158.5q0 113 34.5 200t92.5 138q11 9 30 9q13 0 20.5 -8.5t7.5 -21.5q0 -9 -13 -24q-1 -2 -5 -6q-92 -111 -92 -281q0 -74 26 -115t62 -41q29 0 54 32.5t31 88.5v193q0 20 12 31.5 t28 11.5q15 0 26 -10.5t11 -28.5v-197q6 -56 31 -88.5t54 -32.5q36 0 63 41.5t27 115.5q0 165 -97 282q-15 18 -15 30q0 13 7.5 21.5t20.5 8.5q19 0 30 -9q127 -112 127 -333q0 -103 -46.5 -166t-109.5 -63zM384 836l-68 -154q-15 -35 -35 -35q-37 0 -37 34q0 9 4 17l67 156 q13 28 36 28q35 0 35 -36q0 -4 -2 -10z" />
<glyph unicode="&#x2013;" horiz-adv-x="716" d="M43 315h506q43 0 43 -39q0 -37 -43 -37h-506q-43 0 -43 37q0 16 12 27.5t31 11.5z" />
<glyph unicode="&#x2014;" horiz-adv-x="914" d="M43 315h704q43 0 43 -39q0 -37 -43 -37h-704q-43 0 -43 37q0 16 12 27.5t31 11.5z" />
<glyph unicode="&#x2018;" horiz-adv-x="272" d="M70 735l75 -176q4 -5 4 -12q0 -13 -12.5 -24t-25.5 -11q-27 0 -41 35l-67 163q-3 6 -3 12q0 14 12 23.5t27 9.5q22 0 31 -20z" />
<glyph unicode="&#x2019;" horiz-adv-x="272" d="M4 559l75 176q9 20 31 20q15 0 27 -9.5t12 -23.5q0 -6 -3 -12l-67 -163q-14 -35 -41 -35q-13 0 -25.5 11t-12.5 24q0 7 4 12z" />
<glyph unicode="&#x201a;" horiz-adv-x="272" d="M145 64l-75 -176q-9 -20 -31 -20q-15 0 -27 9.5t-12 23.5q0 6 3 12l67 163q13 32 43 32q13 0 24.5 -9.5t11.5 -22.5q0 -7 -4 -12z" />
<glyph unicode="&#x201c;" horiz-adv-x="435" d="M70 735l75 -176q4 -5 4 -12q0 -13 -12.5 -24t-25.5 -11q-27 0 -41 35l-67 163q-3 6 -3 12q0 14 12 23.5t27 9.5q22 0 31 -20zM240 735l75 -176q4 -5 4 -12q0 -13 -12.5 -24t-25.5 -11q-27 0 -41 35l-67 163q-3 6 -3 12q0 14 12 23.5t27 9.5q22 0 31 -20z" />
<glyph unicode="&#x201d;" horiz-adv-x="435" d="M174 559l75 176q9 20 31 20q15 0 27 -9.5t12 -23.5q0 -6 -3 -12l-67 -163q-14 -35 -41 -35q-13 0 -25.5 11t-12.5 24q0 7 4 12zM4 559l75 176q9 20 31 20q15 0 27 -9.5t12 -23.5q0 -6 -3 -12l-67 -163q-14 -35 -41 -35q-13 0 -25.5 11t-12.5 24q0 7 4 12z" />
<glyph unicode="&#x201e;" horiz-adv-x="434" d="M145 64l-75 -176q-9 -20 -31 -20q-15 0 -27 9.5t-12 23.5q0 6 3 12l67 163q6 13 18 23t26 10q13 0 24 -10t11 -23q0 -7 -4 -12zM305 64l-75 -176q-9 -20 -31 -20q-15 0 -27 9.5t-12 23.5q0 6 3 12l67 163q5 13 17.5 22.5t26.5 9.5q13 0 24 -9.5t11 -22.5q0 -7 -4 -12z " />
<glyph unicode="&#x2020;" horiz-adv-x="567" d="M406 482h-149v-433q0 -49 -35 -49q-16 0 -27 13.5t-11 35.5v433h-147q-37 0 -37 38q0 35 37 35h147v146q0 22 11 36t27 14q35 0 35 -50v-146h149q37 0 37 -38q0 -35 -37 -35z" />
<glyph unicode="&#x2021;" horiz-adv-x="567" d="M257 275h149q37 0 37 -38q0 -35 -37 -35h-149v-157q0 -49 -35 -49q-16 0 -27 13.5t-11 35.5v157h-147q-37 0 -37 38q0 35 37 35h147v207h-147q-37 0 -37 38q0 36 37 36h147v146q0 22 11 35.5t27 13.5q35 0 35 -49v-146h149q37 0 37 -38q0 -36 -37 -36h-149v-207z" />
<glyph unicode="&#x2022;" horiz-adv-x="582" d="M229 518q75 0 123.5 -49t48.5 -124t-48.5 -124.5t-123.5 -49.5t-123.5 49.5t-48.5 124.5t48.5 124t123.5 49z" />
<glyph unicode="&#x2026;" horiz-adv-x="554" d="M170 50q0 21 14.5 35.5t35.5 14.5t35.5 -14.5t14.5 -35.5t-14.5 -35.5t-35.5 -14.5t-35.5 14.5t-14.5 35.5zM330 50q0 21 14.5 35.5t35.5 14.5t35.5 -14.5t14.5 -35.5t-14.5 -35.5t-35.5 -14.5t-35.5 14.5t-14.5 35.5zM0 50q0 21 14.5 35.5t35.5 14.5t35.5 -14.5 t14.5 -35.5t-14.5 -35.5t-35.5 -14.5t-35.5 14.5t-14.5 35.5z" />
<glyph unicode="&#x2030;" horiz-adv-x="1221" d="M539 356q74 0 118.5 -55.5t44.5 -132.5q0 -78 -43.5 -129.5t-119.5 -51.5q-77 0 -123 54.5t-46 133.5q0 78 46 129.5t123 51.5zM539 43q47 0 73.5 37t26.5 87q0 51 -27 91.5t-73 40.5q-47 0 -74 -38t-27 -89q0 -53 26 -91t75 -38zM167 388q-75 0 -121 56.5t-46 134.5 q0 77 45.5 128t121.5 51q75 0 120.5 -54t45.5 -132t-45.5 -131t-120.5 -53zM167 445q48 0 75 37.5t27 89.5q0 51 -27.5 90t-74.5 39q-46 0 -72.5 -36.5t-26.5 -89.5q0 -51 26 -90.5t73 -39.5zM183 35l272 698q12 30 38 30q30 0 30 -33q0 -10 -5 -25q-17 -49 -140 -362.5 t-139 -342.5q-12 -21 -32 -21q-29 0 -29 32q0 9 5 24zM934 356q74 0 118.5 -55.5t44.5 -132.5q0 -78 -43.5 -129.5t-119.5 -51.5q-77 0 -123 54.5t-46 133.5q0 78 46 129.5t123 51.5zM934 43q47 0 73.5 37t26.5 87q0 51 -27 91.5t-73 40.5q-47 0 -74 -38t-27 -89t27 -90 t74 -39z" />
<glyph unicode="&#x2039;" horiz-adv-x="680" d="M522 469l-412 -198l404 -196q36 -18 36 -46q0 -29 -34 -29q-16 0 -37 9l-444 221q-35 18 -35 47q0 28 35 45l455 212q19 8 31 8q9 0 17 -3q18 -7 18 -27q0 -27 -34 -43z" />
<glyph unicode="&#x203a;" horiz-adv-x="680" d="M33 79l404 188l-404 206q-33 17 -33 42q0 31 35 31q11 0 24 -5l453 -222q44 -23 44 -47q0 -28 -52 -53l-445 -213q-12 -5 -22 -5q-36 0 -36 35q0 28 32 43z" />
<glyph unicode="&#x20ac;" horiz-adv-x="780" d="M98 260h-58q-37 0 -37 35t37 35h47q-2 28 -2 43q0 23 1 35h-46q-37 0 -37 35t37 35h56q27 125 114 207t222 82q123 0 211 -82q19 -16 19 -36q0 -18 -10.5 -29t-25.5 -11q-19 0 -31 12q-63 63 -166 63q-98 0 -161.5 -57.5t-86.5 -148.5h348q39 0 39 -36q0 -34 -39 -34 h-359q-1 -10 -1 -28q0 -26 3 -50h256q39 0 39 -36q0 -34 -39 -34h-241q26 -86 88.5 -139.5t154.5 -53.5q96 0 164 68q11 11 25 11q36 0 36 -37q0 -23 -15 -37q-95 -83 -214 -83q-130 0 -214.5 76t-113.5 195z" />
<glyph unicode="&#x2122;" horiz-adv-x="706" d="M92 401v317h-74q-18 0 -18 19q0 17 18 17h185q19 0 19 -18t-19 -18h-74v-317q0 -25 -18 -25q-19 0 -19 25zM298 734l82 -288l86 288q9 27 35 27q27 0 31 -31l50 -327v-5q0 -17 -17 -17q-18 0 -21 20l-45 309l-99 -309q-7 -22 -20 -22q-14 0 -21 22l-95 309l-45 -309 q-3 -21 -21 -21q-16 0 -16 17v6l50 327q4 31 31 31t35 -27z" />
<glyph unicode="&#x2126;" horiz-adv-x="730" d="M89 73h443q34 0 34 -37q0 -36 -34 -36h-443q-34 0 -34 36q0 37 34 37zM308 765q74 0 134 -27t98 -71.5t58 -99.5t20 -114q0 -124 -81.5 -213.5t-228.5 -89.5q-144 0 -224.5 90.5t-80.5 214.5q0 126 81 218t224 92zM309 693q-108 0 -169.5 -70.5t-61.5 -166.5t61 -165.5 t171 -69.5q113 0 174 66.5t61 160.5q0 98 -63.5 171.5t-172.5 73.5z" />
<glyph unicode="&#x2206;" horiz-adv-x="695" d="M300 640l-204 -561h415zM549 0h-503q-46 0 -46 25q0 9 4 18l239 654q16 46 57 46q44 0 57 -46l248 -654q4 -9 4 -19q0 -24 -60 -24z" />
<glyph unicode="&#x25fc;" horiz-adv-x="555" d="M0 555h555v-555h-555v555z" />
<glyph horiz-adv-x="593" d="M242 607h4q79 0 135.5 -45.5t82 -113.5t25.5 -148q0 -81 -25.5 -150t-83 -115.5t-136.5 -46.5t-136.5 45.5t-84 114.5t-26.5 149t26.5 149t83.5 115t135 46zM244 65q78 0 121.5 67.5t43.5 160.5q0 95 -43.5 165t-120.5 70q-81 0 -125 -67.5t-44 -161.5q0 -95 44.5 -164.5 t123.5 -69.5z" />
<glyph horiz-adv-x="399" d="M144 43v474l-98 -28q-10 -2 -13 -2q-15 0 -25 9t-10 24q0 32 37 42q149 42 153 42q24 0 32 -20q5 -10 5 -51v-490q0 -19 -11 -31t-29 -12q-19 0 -30 12t-11 31z" />
<glyph horiz-adv-x="539" d="M-5 408q0 92 65 149t150 57q82 0 145 -53t63 -135q0 -24 -2.5 -39.5t-17.5 -46.5t-44 -64t-85 -84.5t-138 -115.5h261q37 0 37 -37q0 -39 -38 -39h-331q-55 0 -55 36q0 18 15 37q154 132 217.5 193t81 89.5t17.5 63.5q0 53 -39 85.5t-91 32.5q-53 0 -91 -35.5t-38 -98.5 q0 -17 -10.5 -32.5t-29.5 -15.5t-30.5 16.5t-11.5 36.5z" />
<glyph horiz-adv-x="530" d="M199 614q89 0 143.5 -57t54.5 -140q0 -95 -83 -166q56 -35 84.5 -87t28.5 -109q0 -89 -62 -154.5t-164 -65.5q-57 0 -104 25.5t-74 64.5q-25 36 -25 71q0 19 10 29.5t24 10.5q26 0 37 -26q41 -95 131 -95q60 0 102.5 37.5t42.5 104.5q0 53 -30.5 95t-86.5 51q-12 2 -58 2 q-46 1 -46 37t45 36q47 0 57 2q42 8 65.5 48t23.5 87q0 56 -32 90t-89 34q-43 0 -74 -29t-31 -71q0 -50 -38 -50q-43 0 -43 53q0 66 55.5 119t135.5 53z" />
<glyph horiz-adv-x="590" d="M335 -83v142h-285q-25 0 -39 13.5t-14 33.5q0 21 13 38l261 421q29 47 77 47q28 0 46 -19.5t18 -52.5v-405h48q37 0 37 -40q0 -35 -33 -35h-52v-143q0 -47 -38 -47q-39 0 -39 47zM335 528l-244 -393h244v393z" />
<glyph horiz-adv-x="558" d="M180 600h214q17 0 27 -12.5t10 -30.5q0 -38 -37 -38h-206l-33 -193q33 8 76 8q107 0 166.5 -69t59.5 -165q0 -101 -65 -176.5t-182 -75.5q-83 0 -145 41.5t-62 84.5q0 17 9.5 26.5t22.5 9.5q19 0 31 -17q24 -31 66 -50.5t83 -19.5q70 0 116 51t46 117q0 68 -43.5 118.5 t-121.5 50.5q-28 0 -56.5 -8.5t-42.5 -8.5q-41 0 -41 37q0 9 51 280q7 40 57 40z" />
<glyph horiz-adv-x="558" d="M319 679q-62 -58 -118.5 -130.5t-81.5 -123.5q45 53 137 53q83 0 142 -67t59 -169q0 -104 -64 -179t-166 -75q-106 0 -166 78.5t-60 188.5q0 131 71 252t182 221q16 15 34 15t30 -10.5t12 -29.5q0 -13 -11 -24zM231 62q69 5 109.5 57t40.5 120q0 67 -40.5 116t-115.5 49 q-71 0 -108.5 -48.5t-37.5 -115.5q0 -71 41.5 -124.5t110.5 -53.5z" />
<glyph horiz-adv-x="542" d="M47 598h354q19 0 32.5 -13t13.5 -33q0 -12 -6 -27l-265 -627q-18 -41 -48 -41q-35 0 -35 39q0 14 5 24l254 597h-305q-46 0 -46 41q0 40 46 40z" />
<glyph horiz-adv-x="542" d="M119 408q-97 60 -97 170q0 78 57.5 131t138.5 53q82 0 136.5 -51.5t54.5 -132.5q0 -97 -97 -164q59 -28 93.5 -82t34.5 -118q0 -93 -64 -159.5t-157 -66.5q-100 0 -162.5 64.5t-62.5 164.5q0 61 35.5 113.5t89.5 77.5zM219 370q-61 0 -101 -44.5t-40 -105.5 q0 -65 39 -109t102 -44q61 0 99 44t38 107q0 64 -39.5 108t-97.5 44zM219 445q49 0 77.5 38t28.5 90q0 53 -32 84t-77 31t-79.5 -31t-34.5 -84t32.5 -90.5t84.5 -37.5z" />
<glyph horiz-adv-x="574" d="M354 149q-49 -44 -128 -44q-105 0 -167 76t-62 178t62 175.5t174 73.5q106 0 169.5 -77.5t63.5 -196.5q0 -75 -21 -151t-83.5 -172t-161.5 -176q-13 -11 -31 -11q-15 0 -25 9t-10 23q0 22 19 39q68 59 126 133t75 121zM230 531q-74 0 -114 -54.5t-40 -122.5 q0 -80 45.5 -127t109.5 -47q69 0 114 44t45 128q0 71 -41 125t-119 54z" />
<glyph horiz-adv-x="678" d="M287 475l-121 -247h244zM514 24l-68 128h-315l-54 -114q-14 -38 -45 -38q-32 0 -32 35q0 8 4 20l226 473q16 45 58 45t58 -45l234 -473q4 -9 4 -21q0 -34 -34 -34q-27 0 -36 24z" />
<glyph horiz-adv-x="577" d="M0 49v463q0 48 41 48h183q78 0 130.5 -33.5t52.5 -102.5q0 -45 -29.5 -78.5t-79.5 -48.5q72 -2 116 -42t44 -99q0 -62 -50.5 -109t-134.5 -47h-215q-33 0 -44 8q-14 9 -14 41zM74 250v-177h169q63 0 98.5 24t35.5 62q0 47 -44 69t-105 22h-154zM74 323h120q136 0 136 87 q0 33 -26 55t-86 22h-144v-164z" />
<glyph horiz-adv-x="632" d="M474 135q11 11 25 11q36 0 36 -37q0 -23 -15 -37q-95 -83 -214 -83q-133 0 -217 82t-84 212q0 131 85.5 212.5t221.5 81.5q123 0 211 -82q19 -16 19 -36q0 -18 -10.5 -29t-25.5 -11q-19 0 -31 12q-63 63 -166 63q-92 0 -156 -54.5t-64 -149.5q0 -100 63 -161.5t158 -61.5 q96 0 164 68z" />
<glyph horiz-adv-x="659" d="M0 41v471q0 48 58 48h198q108 0 183 -75.5t75 -207.5q0 -133 -80.5 -205t-197.5 -72h-194q-25 0 -33.5 8t-8.5 33zM245 487h-171v-414h157q89 0 146.5 50t57.5 154q0 106 -56 158t-134 52z" />
<glyph horiz-adv-x="492" d="M0 45v470q0 45 41 45h304q37 0 37 -37q0 -36 -37 -36h-272v-156h224q37 0 37 -38q0 -35 -37 -35h-224v-185h280q43 0 43 -37q0 -36 -43 -36h-312q-26 0 -33.5 8.5t-7.5 36.5z" />
<glyph horiz-adv-x="453" d="M0 30v482q0 48 41 48h295q37 0 37 -37q0 -36 -37 -36h-262v-204h198q37 0 37 -38q0 -36 -37 -36h-198v-179q0 -30 -38 -30q-36 0 -36 30z" />
<glyph horiz-adv-x="718" d="M489 240h-155q-44 0 -44 36q0 37 47 37h167q39 0 51.5 -23.5t12.5 -65.5q0 -99 -76.5 -167t-202.5 -68q-123 0 -204.5 85.5t-81.5 194.5q0 125 80.5 214t209.5 89q124 0 213 -92q17 -17 17 -33t-10.5 -29t-28.5 -13q-17 0 -35 16q-78 71 -160 71q-89 0 -146.5 -64 t-57.5 -161q0 -83 60.5 -142t147.5 -59q48 0 92 16.5t76 54t32 88.5q0 14 -4 15z" />
<glyph horiz-adv-x="577" d="M0 36v490q0 37 36 37q37 0 37 -37v-203h313v203q0 37 36 37q38 0 38 -37v-490q0 -36 -38 -36q-36 0 -36 36v213h-313v-213q0 -36 -36 -36q-37 0 -37 36z" />
<glyph horiz-adv-x="191" d="M0 37v488q0 37 39 37t39 -37v-488q0 -37 -39 -37t-39 37z" />
<glyph horiz-adv-x="431" d="M315 525v-376q0 -74 -46.5 -118t-120.5 -44q-80 0 -136 50q-12 11 -12 28q0 38 34 38q8 0 42 -23t73 -23q43 0 67 24.5t24 67.5v376q0 37 37 37q38 0 38 -37z" />
<glyph horiz-adv-x="514" d="M0 57v469q0 37 36 37q37 0 37 -37v-453h321q37 0 37 -36q0 -37 -37 -37h-345q-49 0 -49 57z" />
<glyph horiz-adv-x="825" d="M234 506l124 -371l128 371q23 65 72 65q52 0 62 -73l93 -453q0 -1 0.5 -4t0.5 -4q0 -16 -10.5 -26t-26.5 -10q-33 0 -40 40l-85 436l-155 -434q-15 -43 -41 -43t-41 43l-148 435l-92 -436q-6 -41 -40 -41q-35 0 -35 34q0 8 1 12l99 451q12 75 64 75q48 0 70 -67z" />
<glyph horiz-adv-x="603" d="M0 38v490q0 44 36 44q28 0 52 -36l330 -404v401q0 38 36 38q37 0 37 -38v-489q0 -44 -36 -44q-29 0 -50 30l-332 402v-394q0 -38 -36 -38q-37 0 -37 38z" />
<glyph horiz-adv-x="682" d="M292 565q124 0 206.5 -83t82.5 -206q0 -118 -80.5 -202t-208.5 -84q-131 0 -211.5 84.5t-80.5 204.5q0 48 18 97t52 92t92 70t130 27zM292 492q-98 0 -156.5 -58t-58.5 -153q0 -92 60.5 -155t156.5 -63q92 0 150.5 60.5t58.5 149.5q0 91 -60 155t-151 64z" />
<glyph horiz-adv-x="536" d="M0 37v484q0 40 41 40h192q98 0 156 -55t58 -130q0 -79 -55.5 -137t-152.5 -58h-166v-144q0 -37 -36 -37q-37 0 -37 37zM219 488h-146v-234h162q65 0 101.5 34t36.5 80q0 49 -40.5 84.5t-113.5 35.5z" />
<glyph horiz-adv-x="700" d="M292 565q124 0 206.5 -83t82.5 -206q0 -108 -67 -187l42 -46q11 -13 11 -27t-9 -24.5t-25 -10.5q-14 0 -23 9l-50 50q-70 -50 -168 -50q-131 0 -211.5 84.5t-80.5 204.5q0 48 18 97t52 92t92 70t130 27zM292 492q-98 0 -156.5 -58t-58.5 -153q0 -92 60.5 -155t156.5 -63 q62 0 113 30l-42 40q-14 14 -14 29q0 18 12 30.5t28 12.5q14 0 26 -12l46 -47q40 56 40 127q0 91 -60 155t-151 64z" />
<glyph horiz-adv-x="538" d="M0 45v486q0 40 57 40h150q108 0 169 -45t61 -135q0 -115 -123 -161l107 -163q9 -11 9 -35q0 -33 -32 -33q-18 0 -34 20l-125 186h-166v-160q0 -45 -36 -45q-37 0 -37 45zM215 498h-142v-220h142q62 0 106.5 29t44.5 84q0 56 -45 81.5t-106 25.5z" />
<glyph horiz-adv-x="530" d="M71 110q68 -45 138 -45q48 0 85 20.5t37 64.5q0 33 -31 53.5t-84 39.5q-35 13 -47.5 18t-43.5 18t-44.5 23.5t-32 27t-26 36t-7.5 42.5q0 80 57.5 121.5t143.5 41.5q89 0 155 -36q19 -10 19 -35q0 -17 -10.5 -27t-25.5 -10q-12 0 -22 6q-45 26 -120 26q-51 0 -85.5 -18.5 t-34.5 -59.5q0 -10 4 -18.5t14 -16.5t18 -14t26.5 -14t28 -12t33 -13t31.5 -12q166 -65 166 -160q0 -85 -61 -126.5t-146 -41.5q-92 0 -185 59q-13 9 -13 30q0 20 9.5 31.5t24.5 11.5q13 0 29 -11z" />
<glyph horiz-adv-x="531" d="M187 42v445h-147q-40 0 -40 36q0 37 40 37h369q38 0 38 -37q0 -36 -38 -36h-148v-445q0 -42 -36 -42q-38 0 -38 42z" />
<glyph horiz-adv-x="590" d="M0 285v234q0 43 41 43q38 0 38 -43v-226q0 -121 47 -173t123 -52t117.5 50.5t41.5 174.5v226q0 43 39 43q41 0 41 -43v-234q0 -296 -248 -296q-109 0 -174.5 70t-65.5 226z" />
<glyph horiz-adv-x="596" d="M77 535l166 -411l164 411q11 29 35 29q16 0 30 -12.5t14 -28.5q0 -6 -3 -12l-183 -449q-25 -62 -57 -62q-29 0 -51 53l-189 458q-3 9 -3 18q0 36 38 36q28 0 39 -30z" />
<glyph horiz-adv-x="848" d="M77 535l103 -435l140 434q13 38 53 38q39 0 52 -38l135 -433l100 432q6 41 41 41q16 0 27.5 -11t11.5 -28q0 -6 -1 -9l-116 -475q-5 -22 -22.5 -36.5t-40.5 -14.5q-21 0 -38 11.5t-23 34.5l-128 409l-127 -393q-20 -64 -66 -64q-22 0 -39 16.5t-24 42.5l-114 469 q-1 3 -1 9q0 17 11 27t27 10q33 0 39 -37z" />
<glyph horiz-adv-x="542" d="M12 62l152 246l-126 205q-9 13 -9 25q0 15 10 24.5t25 9.5q20 0 33 -18l113 -180l101 179q12 18 31 18q14 0 25 -10.5t11 -25.5q0 -12 -8 -23l-120 -195l154 -253q14 -22 14 -37q0 -28 -29 -28q-22 0 -38 22l-145 228l-139 -227q-15 -23 -38 -23q-29 0 -29 29q0 16 12 34 z" />
<glyph horiz-adv-x="568" d="M197 43v132l-190 333q-7 13 -7 26q0 35 33 35q19 0 31 -21l175 -292l171 290q14 23 36 23q33 0 33 -32q0 -11 -6 -21l-201 -341v-132q0 -43 -37 -43q-38 0 -38 43z" />
<glyph horiz-adv-x="577" d="M11 81l339 407h-298q-38 0 -38 36q0 37 38 37h352q50 0 50 -32q0 -18 -20 -49l-339 -407h333q39 0 39 -35q0 -38 -39 -38h-393q-35 0 -35 42q0 22 11 39z" />
<glyph horiz-adv-x="678" d="M287 475l-121 -247h244zM514 24l-68 128h-315l-54 -114q-14 -38 -45 -38q-32 0 -32 35q0 8 4 20l226 473q16 45 58 45t58 -45l234 -473q4 -9 4 -21q0 -34 -34 -34q-27 0 -36 24z" />
<glyph horiz-adv-x="577" d="M0 49v463q0 48 41 48h183q78 0 130.5 -33.5t52.5 -102.5q0 -45 -29.5 -78.5t-79.5 -48.5q72 -2 116 -42t44 -99q0 -62 -50.5 -109t-134.5 -47h-215q-33 0 -44 8q-14 9 -14 41zM74 250v-177h169q63 0 98.5 24t35.5 62q0 47 -44 69t-105 22h-154zM74 323h120q136 0 136 87 q0 33 -26 55t-86 22h-144v-164z" />
<glyph horiz-adv-x="492" d="M0 37v473q0 48 41 48h315q17 0 28 -11t11 -27q0 -35 -39 -35h-282v-448q0 -37 -38 -37q-36 0 -36 37z" />
<glyph horiz-adv-x="695" d="M279 465l-169 -392h348zM509 0h-463q-46 0 -46 25q0 9 4 18l219 483q16 46 57 46q44 0 57 -46l228 -483q4 -9 4 -19q0 -24 -60 -24z" />
<glyph horiz-adv-x="492" d="M0 45v470q0 45 41 45h304q37 0 37 -37q0 -36 -37 -36h-272v-156h224q37 0 37 -38q0 -35 -37 -35h-224v-185h280q43 0 43 -37q0 -36 -43 -36h-312q-26 0 -33.5 8.5t-7.5 36.5z" />
<glyph horiz-adv-x="577" d="M11 81l339 407h-298q-38 0 -38 36q0 37 38 37h352q50 0 50 -32q0 -18 -20 -49l-339 -407h333q39 0 39 -35q0 -38 -39 -38h-393q-35 0 -35 42q0 22 11 39z" />
<glyph horiz-adv-x="570" d="M0 36v495q0 37 36 37q37 0 37 -37v-208h313v208q0 37 36 37q38 0 38 -37v-495q0 -36 -38 -36q-36 0 -36 36v213h-313v-213q0 -36 -36 -36q-37 0 -37 36z" />
<glyph horiz-adv-x="692" d="M428 245h-277q-37 0 -37 37t37 37h277q37 0 37 -38q0 -36 -37 -36zM292 565q124 0 206.5 -83t82.5 -206q0 -118 -80.5 -202t-208.5 -84q-131 0 -211.5 84.5t-80.5 204.5q0 48 18 97t52 92t92 70t130 27zM292 492q-98 0 -156.5 -58t-58.5 -153q0 -92 60.5 -155t156.5 -63 q92 0 150.5 60.5t58.5 149.5q0 91 -60 155t-151 64z" />
<glyph horiz-adv-x="191" d="M0 37v488q0 37 36 37q37 0 37 -37v-488q0 -37 -37 -37q-36 0 -36 37z" />
<glyph horiz-adv-x="593" d="M0 32v503q0 31 36 31q38 0 38 -31v-296l349 316q11 9 23 9q16 0 28.5 -12.5t12.5 -27.5q0 -14 -10 -23l-202 -173l219 -263q12 -11 12 -29q0 -16 -13.5 -26.5t-23.5 -10.5q-19 0 -34 17l-217 260l-144 -130v-114q0 -32 -36 -32q-38 0 -38 32z" />
<glyph horiz-adv-x="688" d="M510 24l-223 451l-210 -437q-14 -38 -45 -38q-32 0 -32 35q0 8 4 20l226 473q16 45 58 45t58 -45l234 -473q4 -9 4 -21q0 -15 -10.5 -24.5t-27.5 -9.5q-27 0 -36 24z" />
<glyph horiz-adv-x="825" d="M234 506l124 -371l128 371q23 65 72 65q52 0 62 -73l93 -453q0 -1 0.5 -4t0.5 -4q0 -16 -10.5 -26t-26.5 -10q-33 0 -40 40l-85 436l-155 -434q-15 -43 -41 -43t-41 43l-148 435l-92 -436q-6 -41 -40 -41q-35 0 -35 34q0 8 1 12l99 451q12 75 64 75q48 0 70 -67z" />
<glyph horiz-adv-x="603" d="M0 38v490q0 44 36 44q28 0 52 -36l330 -404v401q0 38 36 38q37 0 37 -38v-489q0 -44 -36 -44q-29 0 -50 30l-332 402v-394q0 -38 -36 -38q-37 0 -37 38z" />
<glyph horiz-adv-x="649" d="M48 561h445q37 0 37 -37q0 -36 -37 -36h-445q-37 0 -37 36q0 37 37 37zM118 322h296q37 0 37 -39q0 -36 -37 -36h-296q-36 0 -36 39q0 36 36 36zM40 76h462q42 0 42 -38q0 -36 -42 -36h-462q-43 0 -43 37t43 37z" />
<glyph horiz-adv-x="682" d="M292 565q124 0 206.5 -83t82.5 -206q0 -118 -80.5 -202t-208.5 -84q-131 0 -211.5 84.5t-80.5 204.5q0 48 18 97t52 92t92 70t130 27zM292 492q-98 0 -156.5 -58t-58.5 -153q0 -92 60.5 -155t156.5 -63q92 0 150.5 60.5t58.5 149.5q0 91 -60 155t-151 64z" />
<glyph horiz-adv-x="571" d="M36 556h385q15 0 26.5 -11.5t11.5 -26.5v-481q0 -37 -36 -37q-37 0 -37 37v444h-313v-444q0 -37 -38 -37q-35 0 -35 37v481q0 38 36 38z" />
<glyph horiz-adv-x="536" d="M0 37v484q0 40 41 40h202q98 0 156 -55t58 -130q0 -79 -55.5 -137t-152.5 -58h-176v-144q0 -37 -36 -37q-37 0 -37 37zM229 488h-156v-234h172q65 0 101.5 34t36.5 80q0 49 -40.5 84.5t-113.5 35.5z" />
<glyph horiz-adv-x="568" d="M127 487l159 -172q10 -14 10 -27q0 -10 -7 -20l-188 -195h338q37 0 37 -38q0 -35 -37 -35h-404q-35 0 -35 42q0 22 11 39l181 189q7 12 7 20q0 10 -9 23l-158 166q-19 28 -19 49q0 33 51 33h362q37 0 37 -38q0 -36 -37 -36h-299z" />
<glyph horiz-adv-x="531" d="M187 42v445h-147q-40 0 -40 36q0 37 40 37h369q38 0 38 -37q0 -36 -38 -36h-148v-445q0 -42 -36 -42q-38 0 -38 42z" />
<glyph horiz-adv-x="568" d="M197 43v132l-190 333q-7 13 -7 26q0 35 33 35q19 0 31 -21l175 -292l171 290q14 23 36 23q33 0 33 -32q0 -11 -6 -21l-201 -341v-132q0 -43 -37 -43q-38 0 -38 43z" />
<glyph horiz-adv-x="708" d="M248 475v54q0 37 37 37t37 -37q0 -2 -2 -54q114 0 181 -52t67 -135q0 -82 -67 -132t-180 -50v-68q0 -38 -36 -38q-37 0 -37 38v68q-120 0 -184 49.5t-64 133.5q0 83 67 134.5t181 51.5zM248 175v231q-88 0 -132.5 -31.5t-44.5 -85.5q0 -53 47 -83.5t130 -30.5zM321 406 v-231q176 0 176 113q0 55 -44 86.5t-132 31.5z" />
<glyph horiz-adv-x="487" d="M12 62l152 246l-126 205q-9 13 -9 25q0 15 10 24.5t25 9.5q20 0 33 -18l113 -180l101 179q12 18 31 18q14 0 25 -10.5t11 -25.5q0 -12 -8 -23l-120 -195l156 -252q14 -22 14 -37q0 -29 -31 -29q-22 0 -38 22l-145 228l-139 -227q-15 -23 -38 -23q-29 0 -29 29q0 16 12 34 z" />
<glyph horiz-adv-x="695" d="M320 539v-340q102 0 137.5 56t35.5 177v84q0 37 37 37q38 0 38 -37v-97q0 -290 -248 -290v-93q0 -36 -37 -36q-36 0 -36 36v93q-247 6 -247 290v97q0 36 38 36q35 0 35 -36v-84q0 -111 39 -172t135 -61v340q0 37 36 37q37 0 37 -37z" />
<glyph horiz-adv-x="635" d="M79 73h396q34 0 34 -37q0 -36 -34 -36h-396q-34 0 -34 36q0 37 34 37zM272 565q104 0 176.5 -60.5t72.5 -158.5q0 -93 -70.5 -154.5t-178.5 -61.5q-105 0 -173.5 62.5t-68.5 156.5q0 79 65 147.5t177 68.5zM272 492q-71 0 -118 -39t-47 -102q0 -66 48.5 -107t118.5 -41 q72 0 120.5 38t48.5 102q0 66 -49.5 107.5t-121.5 41.5z" />
<glyph horiz-adv-x="678" d="M287 475l-121 -247h244zM514 24l-68 128h-315l-54 -114q-14 -38 -45 -38q-32 0 -32 35q0 8 4 20l226 473q16 45 58 45t58 -45l234 -473q4 -9 4 -21q0 -34 -34 -34q-27 0 -36 24z" />
<glyph horiz-adv-x="492" d="M0 45v470q0 45 41 45h304q37 0 37 -37q0 -36 -37 -36h-272v-156h224q37 0 37 -38q0 -35 -37 -35h-224v-185h280q43 0 43 -37q0 -36 -43 -36h-312q-26 0 -33.5 8.5t-7.5 36.5z" />
<glyph horiz-adv-x="191" d="M0 37v488q0 37 36 37q37 0 37 -37v-488q0 -37 -37 -37q-36 0 -36 37z" />
<glyph horiz-adv-x="563" d="M0 36v495q0 37 36 37q37 0 37 -37v-208h313v208q0 37 36 37q38 0 38 -37v-495q0 -36 -38 -36q-36 0 -36 36v213h-313v-213q0 -36 -36 -36q-37 0 -37 36z" />
<glyph horiz-adv-x="682" d="M292 565q124 0 206.5 -83t82.5 -206q0 -118 -80.5 -202t-208.5 -84q-131 0 -211.5 84.5t-80.5 204.5q0 48 18 97t52 92t92 70t130 27zM292 492q-98 0 -156.5 -58t-58.5 -153q0 -92 60.5 -155t156.5 -63q92 0 150.5 60.5t58.5 149.5q0 91 -60 155t-151 64z" />
<glyph horiz-adv-x="568" d="M197 43v132l-190 333q-7 13 -7 26q0 35 33 35q19 0 31 -21l175 -292l171 290q14 23 36 23q33 0 33 -32q0 -11 -6 -21l-201 -341v-132q0 -43 -37 -43q-38 0 -38 43z" />
<glyph horiz-adv-x="635" d="M79 73h396q34 0 34 -37q0 -36 -34 -36h-396q-34 0 -34 36q0 37 34 37zM272 565q104 0 176.5 -60.5t72.5 -158.5q0 -93 -70.5 -154.5t-178.5 -61.5q-105 0 -173.5 62.5t-68.5 156.5q0 79 65 147.5t177 68.5zM272 492q-71 0 -118 -39t-47 -102q0 -66 48.5 -107t118.5 -41 q72 0 120.5 38t48.5 102q0 66 -49.5 107.5t-121.5 41.5z" />
<glyph horiz-adv-x="191" d="M0 37v488q0 37 36 37q37 0 37 -37v-488q0 -37 -37 -37q-36 0 -36 37z" />
<glyph horiz-adv-x="568" d="M197 43v132l-190 333q-7 13 -7 26q0 35 33 35q19 0 31 -21l175 -292l171 290q14 23 36 23q33 0 33 -32q0 -11 -6 -21l-201 -341v-132q0 -43 -37 -43q-38 0 -38 43z" />
<glyph horiz-adv-x="568" d="M127 487l159 -172q10 -14 10 -27q0 -10 -7 -20l-188 -195h338q37 0 37 -38q0 -35 -37 -35h-404q-35 0 -35 42q0 22 11 39l181 189q7 12 7 20q0 10 -9 23l-158 166q-19 28 -19 49q0 33 51 33h362q37 0 37 -38q0 -36 -37 -36h-299z" />
<glyph horiz-adv-x="191" d="M0 37v488q0 37 36 37q37 0 37 -37v-488q0 -37 -37 -37q-36 0 -36 37z" />
<glyph horiz-adv-x="568" d="M197 43v132l-190 333q-7 13 -7 26q0 35 33 35q19 0 31 -21l175 -292l171 290q14 23 36 23q33 0 33 -32q0 -11 -6 -21l-201 -341v-132q0 -43 -37 -43q-38 0 -38 43z" />
<glyph d="M297 767h4q65 0 114.5 -37t76 -97.5t39.5 -125t13 -130.5q0 -64 -13.5 -128.5t-41 -125t-77 -98t-113.5 -37.5q-67 0 -117.5 36t-77.5 95.5t-40 124t-13 131.5q0 65 13.5 130t40.5 126t77 98.5t115 37.5zM299 65q43 0 76 32t51 81t26.5 98.5t8.5 94.5q0 52 -8.5 104.5 t-26.5 101.5t-50.5 80t-75.5 31q-46 0 -80.5 -32.5t-52 -83.5t-25.5 -101t-8 -98q0 -49 9.5 -100t28 -99t51.5 -78.5t76 -30.5z" />
<glyph d="M522 2h-389q-37 0 -37 33t37 33h161v587l-98 -28q-10 -2 -13 -2q-15 0 -25 9t-10 24q0 32 37 42q149 42 153 42q24 0 32 -20q5 -10 5 -51v-603h147q39 0 39 -34q0 -32 -39 -32z" />
<glyph d="M85 558q0 92 65 149t150 57q82 0 145 -53t63 -135q0 -96 -71 -190l-236 -310h281q37 0 37 -37q0 -39 -38 -39h-331q-55 0 -55 36q0 18 15 37l272 370q44 60 44 126q0 53 -39 85.5t-91 32.5q-53 0 -91 -35.5t-38 -98.5q0 -17 -10.5 -32.5t-29.5 -15.5t-30.5 16.5 t-11.5 36.5z" />
<glyph d="M289 767q89 0 143.5 -57t54.5 -140q0 -95 -83 -166q56 -35 84.5 -87t28.5 -109q0 -89 -62 -154.5t-164 -65.5q-57 0 -104 25.5t-74 64.5q-25 36 -25 71q0 19 10 29.5t24 10.5q26 0 37 -26q41 -95 131 -95q60 0 102.5 37.5t42.5 104.5q0 53 -30.5 95t-86.5 51q-12 2 -58 2 q-46 1 -46 37t45 36q47 0 57 2q42 8 65.5 48t23.5 87q0 56 -32 90t-89 34q-43 0 -74 -29t-31 -71q0 -50 -38 -50q-43 0 -43 53q0 66 55.5 119t135.5 53z" />
<glyph d="M385 47v142h-285q-25 0 -39 13.5t-14 33.5q0 21 13 38l261 421q29 47 77 47q28 0 46 -19.5t18 -52.5v-405h48q37 0 37 -40q0 -35 -33 -35h-52v-143q0 -47 -38 -47q-39 0 -39 47zM385 658l-244 -393h244v393z" />
<glyph d="M240 740h214q17 0 27 -12.5t10 -30.5q0 -38 -37 -38h-206l-33 -193q33 8 76 8q107 0 166.5 -69t59.5 -165q0 -101 -65 -176.5t-182 -75.5q-83 0 -145 41.5t-62 84.5q0 17 9.5 26.5t22.5 9.5q19 0 31 -17q24 -31 66 -50.5t83 -19.5q70 0 116 51t46 117q0 68 -43.5 118.5 t-121.5 50.5q-28 0 -56.5 -8.5t-42.5 -8.5q-41 0 -41 37q0 9 51 280q7 40 57 40z" />
<glyph d="M389 679q-62 -58 -118.5 -130.5t-81.5 -123.5q45 53 137 53q83 0 142 -67t59 -169q0 -104 -64 -179t-166 -75q-106 0 -166 78.5t-60 188.5q0 131 71 252t182 221q16 15 34 15t30 -10.5t12 -29.5q0 -13 -11 -24zM301 62q69 5 109.5 57t40.5 120q0 67 -40.5 116t-115.5 49 q-71 0 -108.5 -48.5t-37.5 -115.5q0 -71 41.5 -124.5t110.5 -53.5z" />
<glyph d="M117 741h354q19 0 32.5 -13t13.5 -33q0 -12 -6 -27l-265 -627q-18 -41 -48 -41q-35 0 -35 39q0 14 5 24l254 597h-305q-46 0 -46 41q0 40 46 40z" />
<glyph d="M199 408q-97 60 -97 170q0 78 57.5 131t138.5 53q82 0 136.5 -51.5t54.5 -132.5q0 -97 -97 -164q59 -28 93.5 -82t34.5 -118q0 -93 -64 -159.5t-157 -66.5q-100 0 -162.5 64.5t-62.5 164.5q0 61 35.5 113.5t89.5 77.5zM299 370q-61 0 -101 -44.5t-40 -105.5 q0 -65 39 -109t102 -44q61 0 99 44t38 107q0 64 -39.5 108t-97.5 44zM299 445q49 0 77.5 38t28.5 90q0 53 -32 84t-77 31t-79.5 -31t-34.5 -84t32.5 -90.5t84.5 -37.5z" />
<glyph d="M414 307q-49 -44 -128 -44q-105 0 -167 76t-62 178t62 175.5t174 73.5q106 0 169.5 -77.5t63.5 -196.5q0 -75 -21 -151t-83.5 -172t-161.5 -176q-13 -11 -31 -11q-15 0 -25 9t-10 23q0 22 19 39q68 59 126 133t75 121zM290 689q-74 0 -114 -54.5t-40 -122.5 q0 -80 45.5 -127t109.5 -47q69 0 114 44t45 128q0 71 -41 125t-119 54z" />
<glyph horiz-adv-x="629" d="M297 607h4q79 0 135.5 -45.5t82 -113.5t25.5 -148q0 -81 -25.5 -150t-83 -115.5t-136.5 -46.5t-136.5 45.5t-84 114.5t-26.5 149t26.5 149t83.5 115t135 46zM299 65q79 0 122 67.5t43 160.5q0 95 -43.5 165t-120.5 70q-81 0 -125 -67.5t-44 -161.5q0 -95 44.5 -164.5 t123.5 -69.5z" />
<glyph d="M522 2h-389q-37 0 -37 33t37 33h161v449l-98 -28q-10 -2 -13 -2q-15 0 -25 9t-10 24q0 32 37 42q149 42 153 42q24 0 32 -20q5 -10 5 -51v-465h147q39 0 39 -34q0 -32 -39 -32z" />
<glyph d="M85 408q0 92 65 149t150 57q82 0 145 -53t63 -135q0 -24 -2.5 -39.5t-17.5 -46.5t-44 -64t-85 -84.5t-138 -115.5h261q37 0 37 -37q0 -39 -38 -39h-331q-55 0 -55 36q0 18 15 37q154 132 217.5 193t81 89.5t17.5 63.5q0 53 -39 85.5t-91 32.5q-53 0 -91 -35.5t-38 -98.5 q0 -17 -10.5 -32.5t-29.5 -15.5t-30.5 16.5t-11.5 36.5z" />
<glyph d="M289 614q89 0 143.5 -57t54.5 -140q0 -95 -83 -166q56 -35 84.5 -87t28.5 -109q0 -89 -62 -154.5t-164 -65.5q-57 0 -104 25.5t-74 64.5q-25 36 -25 71q0 19 10 29.5t24 10.5q26 0 37 -26q41 -95 131 -95q60 0 102.5 37.5t42.5 104.5q0 53 -30.5 95t-86.5 51q-12 2 -58 2 q-46 1 -46 37t45 36q47 0 57 2q42 8 65.5 48t23.5 87q0 56 -32 90t-89 34q-43 0 -74 -29t-31 -71q0 -50 -38 -50q-43 0 -43 53q0 66 55.5 119t135.5 53z" />
<glyph d="M385 -83v142h-285q-25 0 -39 13.5t-14 33.5q0 21 13 38l261 421q29 47 77 47q28 0 46 -19.5t18 -52.5v-405h48q37 0 37 -40q0 -35 -33 -35h-52v-143q0 -47 -38 -47q-39 0 -39 47zM385 528l-244 -393h244v393z" />
<glyph d="M240 600h214q17 0 27 -12.5t10 -30.5q0 -38 -37 -38h-206l-33 -193q33 8 76 8q107 0 166.5 -69t59.5 -165q0 -101 -65 -176.5t-182 -75.5q-83 0 -145 41.5t-62 84.5q0 17 9.5 26.5t22.5 9.5q19 0 31 -17q24 -31 66 -50.5t83 -19.5q70 0 116 51t46 117q0 68 -43.5 118.5 t-121.5 50.5q-28 0 -56.5 -8.5t-42.5 -8.5q-41 0 -41 37q0 9 51 280q7 40 57 40z" />
<glyph d="M389 679q-62 -58 -118.5 -130.5t-81.5 -123.5q45 53 137 53q83 0 142 -67t59 -169q0 -104 -64 -179t-166 -75q-106 0 -166 78.5t-60 188.5q0 131 71 252t182 221q16 15 34 15t30 -10.5t12 -29.5q0 -13 -11 -24zM301 62q69 5 109.5 57t40.5 120q0 67 -40.5 116t-115.5 49 q-71 0 -108.5 -48.5t-37.5 -115.5q0 -71 41.5 -124.5t110.5 -53.5z" />
<glyph d="M117 598h354q19 0 32.5 -13t13.5 -33q0 -12 -6 -27l-265 -627q-18 -41 -48 -41q-35 0 -35 39q0 14 5 24l254 597h-305q-46 0 -46 41q0 40 46 40z" />
<glyph d="M199 408q-97 60 -97 170q0 78 57.5 131t138.5 53q82 0 136.5 -51.5t54.5 -132.5q0 -97 -97 -164q59 -28 93.5 -82t34.5 -118q0 -93 -64 -159.5t-157 -66.5q-100 0 -162.5 64.5t-62.5 164.5q0 61 35.5 113.5t89.5 77.5zM299 370q-61 0 -101 -44.5t-40 -105.5 q0 -65 39 -109t102 -44q61 0 99 44t38 107q0 64 -39.5 108t-97.5 44zM299 445q49 0 77.5 38t28.5 90q0 53 -32 84t-77 31t-79.5 -31t-34.5 -84t32.5 -90.5t84.5 -37.5z" />
<glyph d="M414 149q-49 -44 -128 -44q-105 0 -167 76t-62 178t62 175.5t174 73.5q106 0 169.5 -77.5t63.5 -196.5q0 -75 -21 -151t-83.5 -172t-161.5 -176q-13 -11 -31 -11q-15 0 -25 9t-10 23q0 22 19 39q68 59 126 133t75 121zM290 531q-74 0 -114 -54.5t-40 -122.5 q0 -80 45.5 -127t109.5 -47q69 0 114 44t45 128q0 71 -41 125t-119 54z" />
<glyph horiz-adv-x="593" d="M0 32v503q0 31 36 31q38 0 38 -31v-296l349 316q11 9 23 9q16 0 28.5 -12.5t12.5 -27.5q0 -14 -10 -23l-202 -173l219 -263q12 -11 12 -29q0 -16 -13.5 -26.5t-23.5 -10.5q-19 0 -34 17l-217 260l-144 -130v-114q0 -32 -36 -32q-38 0 -38 32z" />
</font>
</defs>
</svg>
